<?xml version="1.0" standalone="no"?>
<!DOCTYPE svg PUBLIC "-//W3C//DTD SVG 1.1//EN" "http://www.w3.org/Graphics/SVG/1.1/DTD/svg11.dtd" >
<svg xmlns="http://www.w3.org/2000/svg">
<metadata>
This is a custom SVG webfont generated by Font Squirrel.
Copyright   : Copyright c 2008 by Prinya R nont All rights reserved
Designer    : Prinya Rojarayanont
Foundry     : Prinya R nont
Foundry URL : httpwwwdbfontsbiz
</metadata>
<defs>
<font id="DBHelvethaicaX45Li" horiz-adv-x="0" >
<font-face units-per-em="2048" ascent="1638" descent="-410" />
<missing-glyph horiz-adv-x="348" />
<glyph unicode="&#x2b;&#x2d;" horiz-adv-x="839" d="M64 0v82h712v-82h-712zM66 375v84h313v249h82v-249h315v-84h-315v-250h-82v250h-313z" />
<glyph unicode="&#x2e;&#x2e;&#x2e;" horiz-adv-x="1399" d="M170 0v156h127v-156h-127zM637 0v156h125v-156h-125zM1102 0v156h127v-156h-127z" />
<glyph unicode="&#x3c;&#x3d;" horiz-adv-x="839" d="M60 14v80h718v-80h-718zM60 512v84l718 326v-86l-616 -281l616 -283v-84z" />
<glyph unicode="&#x3e;&#x3d;" horiz-adv-x="841" d="M62 14v80h718v-80h-718zM62 188v84l618 283l-618 281v86l718 -326v-84z" />
<glyph unicode=" "  horiz-adv-x="348" />
<glyph unicode="&#x09;" horiz-adv-x="348" />
<glyph unicode="&#xa0;" horiz-adv-x="348" />
<glyph unicode="!" horiz-adv-x="420" d="M148 0v156h124v-156h-124zM158 700v300h104v-300l-20 -454h-62z" />
<glyph unicode="&#x22;" horiz-adv-x="518" d="M119 656v344h92v-344h-92zM305 656v344h93v-344h-93z" />
<glyph unicode="#" horiz-adv-x="778" d="M45 309v72h162l31 211h-154v70h162l43 309h79l-44 -309h190l43 309h78l-43 -309h148v-70h-156l-31 -211h145v-72h-153l-45 -309h-78l43 309h-189l-42 -309h-78l42 309h-153zM284 381h191l31 211h-190z" />
<glyph unicode="$" horiz-adv-x="778" d="M37 326h96q0 -57 17.5 -102.5t47.5 -78.5t70 -55t88 -30v405q-40 8 -77 19t-70 26.5t-60 35.5t-46.5 48.5t-30 66t-10.5 85.5q0 62 23 112t64 86t94 56t113 22v108h62v-108q40 -2 77 -13t70.5 -31t61.5 -47t47.5 -61t30.5 -74t10 -86h-97q-1 50 -16.5 91.5t-42 71.5 t-63 47.5t-78.5 19.5v-393q39 -8 78 -19.5t75 -27t67 -37t54 -50.5t36.5 -67t13.5 -86q0 -45 -13 -83.5t-36 -69.5t-54 -54.5t-66.5 -40t-75 -25.5t-79.5 -9v-120h-62v120q-154 22 -233.5 106.5t-85.5 241.5zM158 735q0 -45 17 -75t45 -49t64 -31t72 -21v381q-38 -2 -74 -15 t-63.5 -38t-44 -63t-16.5 -89zM414 56q43 2 85 14t75.5 37t54 63t20.5 90q0 30 -10.5 55t-27.5 44.5t-40.5 35t-49.5 27.5t-53.5 21t-53.5 16v-403z" />
<glyph unicode="%" horiz-adv-x="1243" d="M92 719q0 58 13 106.5t40 84.5t70 56.5t105 20.5q60 0 103 -20.5t70 -56.5t39.5 -85t12.5 -106q0 -58 -12.5 -107t-39.5 -85t-70 -56.5t-103 -20.5q-61 0 -104.5 20.5t-70.5 56.5t-40 85t-13 107zM174 717q0 -33 7 -68t23 -63t44 -46t72 -18q42 0 69.5 18t44 46t23 63 t6.5 68q0 22 -2.5 45.5t-9.5 45.5t-18 42t-26.5 34t-37 23t-49.5 9t-50.5 -9t-39 -23t-27 -34t-17 -42t-9.5 -45.5t-3 -45.5zM260 -49l624 1049h78l-622 -1049h-80zM706 248q0 58 13 107t40 85t70 56t105 20q60 0 103 -20t70 -56t39.5 -85t12.5 -107t-12.5 -107t-39.5 -85 t-70 -56t-103 -20q-62 0 -105 20t-70 56t-40 85t-13 107zM788 246q0 -33 7 -68t23 -63.5t44.5 -47t71.5 -18.5q42 0 70 18.5t44 47t22.5 63.5t6.5 68q0 22 -2.5 46t-9.5 46t-17.5 41t-26.5 34t-37.5 23t-49.5 8q-29 0 -50.5 -8t-38 -23t-27 -34t-17.5 -41t-10 -46t-3 -46z " />
<glyph unicode="&#x26;" horiz-adv-x="854" d="M51 262q0 54 22.5 98t57.5 79t77.5 63t82.5 51l-21 29q-18 23 -35 46.5t-31 50t-23 55t-9 60.5q0 47 18 85.5t48 65.5t71 42t89 15q46 0 87 -15t71.5 -42t48 -65t17.5 -86q0 -47 -16 -84.5t-43 -68.5t-62 -57t-71 -50q54 -63 106 -123.5t105 -124.5q8 18 13 35.5t7.5 36 t3.5 40.5t1 52h96q0 -20 -3 -48t-10.5 -60t-19 -65.5t-27.5 -65.5l176 -211h-124l-102 125q-28 -32 -61 -58.5t-71 -45.5t-79 -30t-85 -11q-66 0 -122 18t-96.5 54t-63.5 88.5t-23 121.5zM148 254q0 -42 17.5 -77.5t47 -61t67.5 -39.5t80 -14q33 0 65 11t61.5 30t55.5 45 q25 24 46 52l-246 292q-33 -19 -67.5 -42.5t-62.5 -52.5t-46 -64.5t-18 -78.5zM268 794q0 -23 10 -46.5t24 -46.5t32 -45q16 -22 32 -42l11 -14q26 16 52.5 36t48 44t35 52t13.5 62q0 29 -10.5 52.5t-28 39t-41.5 24.5q-22 8 -48 8t-50 -8.5t-41.5 -24t-28 -39t-10.5 -52.5z " />
<glyph unicode="'" horiz-adv-x="389" d="M148 656v344h96v-344h-96z" />
<glyph unicode="(" horiz-adv-x="338" d="M68 372q0 90 13.5 177t39 168t62 157t81.5 146h82q-48 -76 -83 -158t-57 -168t-32 -175t-10 -179q0 -76 13 -155.5t37 -157.5t58 -152.5t74 -140.5h-82q-46 76 -83 151t-62 152t-38 159.5t-13 175.5z" />
<glyph unicode=")" horiz-adv-x="338" d="M-10 -266q48 76 83 157t57.5 166t33 174t10.5 181q0 76 -13 155t-37 158t-58 153.5t-76 141.5h82q47 -77 83.5 -151.5t62.5 -152t39 -160t13 -175.5q0 -90 -13.5 -176.5t-39 -167.5t-62.5 -157t-83 -146h-82z" />
<glyph unicode="*" horiz-adv-x="491" d="M33 824l20 60l162 -56v172h61v-172l162 56l21 -60l-162 -54l103 -133l-54 -41l-102 135l-102 -135l-54 41l102 137z" />
<glyph unicode="+" horiz-adv-x="839" d="M64 314v82h315v312h82v-312h315v-82h-315v-314h-82v314h-315z" />
<glyph unicode="," horiz-adv-x="389" d="M127 -123q14 6 25.5 19.5t19.5 30.5t12 37q4 19 6 36h-59v156h127v-154q-1 -31 -9.5 -61.5t-24.5 -57.5t-40.5 -47t-56.5 -28v69z" />
<glyph unicode="-" horiz-adv-x="588" d="M64 314v82h460v-82h-460z" />
<glyph unicode="." horiz-adv-x="389" d="M131 0v156h127v-156h-127z" />
<glyph unicode="/" horiz-adv-x="465" d="M-18 -20l422 1040h80l-418 -1040h-84z" />
<glyph unicode="0" horiz-adv-x="778" d="M43 488q0 58 5.5 118t20 116t39 106t63.5 87t92.5 59t125.5 22t125.5 -22t92.5 -59t63.5 -87t39 -106t20 -116t5.5 -118t-5.5 -118t-20 -117t-39 -106.5t-63.5 -87t-92.5 -58.5t-125.5 -21t-125.5 21t-92.5 58.5t-63.5 87t-39 106.5t-20 117t-5.5 118zM140 488 q0 -42 3 -90t12.5 -95.5t27 -91t44.5 -76.5t67 -53t95 -20t95 20t67 53t44 76.5t26 91t12.5 95.5t3.5 90t-3.5 90t-12.5 95t-26 90.5t-44 77t-67 53.5t-95 20t-95 -20t-67 -53.5t-44.5 -77t-27 -90.5t-12.5 -95t-3 -90z" />
<glyph unicode="1" horiz-adv-x="778" d="M131 696v86q35 2 67 6t60 11t51.5 20t42 34t32.5 51t22 71h82v-975h-97v758q-23 -18 -51 -29t-60 -18t-69.5 -10t-79.5 -5z" />
<glyph unicode="2" horiz-adv-x="778" d="M47 0q1 52 13 95.5t33 80t49 67.5t60.5 58.5t68.5 52.5q36 26 73 50q28 18 58 37t58 41t53 47t44 53.5t30 62t11 72.5q0 46 -17 83t-46.5 62t-69 38.5t-82.5 13.5q-59 0 -100.5 -23t-68 -60t-38 -86.5t-10.5 -103.5h-96q-2 77 17 142t58.5 112t100 74t141.5 27 q65 0 121 -18t98 -53t65 -87.5t23 -120.5q0 -62 -19.5 -113.5t-52.5 -94.5t-76 -79q-44 -38 -92 -68q-57 -36 -106.5 -68t-88.5 -64.5t-64 -66.5t-33 -73h536v-90h-651z" />
<glyph unicode="3" horiz-adv-x="778" d="M43 318h97q-2 -58 13 -106t45.5 -82t76 -52t104.5 -18q48 0 92 14t78.5 41t54.5 67q20 38 20 90q0 50 -18 88.5t-49 64t-73 37.5q-40 13 -88 13h-80v82h80q33 -1 67.5 9t62.5 32t46 55t18 78q0 48 -17 82t-46 56t-67 32.5t-81 10.5q-54 0 -95.5 -18.5t-69.5 -51.5 t-42 -78.5t-12 -99.5h-96q0 70 22.5 130.5t63 105t98.5 69.5t129 25q40 0 78 -7t72.5 -20t63.5 -34t50 -49t33 -64q12 -34 12 -78q0 -38 -11 -72.5t-30.5 -63t-47.5 -50.5q-29 -23 -63 -36q46 -9 81 -30t58 -52.5t35.5 -71.5t12.5 -88t-12.5 -89t-35.5 -74t-54 -59t-69 -43 t-81 -26t-88 -9q-77 0 -141.5 23t-110 66t-69 107t-17.5 144z" />
<glyph unicode="4" horiz-adv-x="778" d="M37 232v92l457 651h86v-661h145v-82h-145v-232h-90v232h-453zM129 314h361v516z" />
<glyph unicode="5" horiz-adv-x="778" d="M47 284h97q2 -52 20 -93t49.5 -71t74 -46t91.5 -16q56 0 100.5 21t76 57t48.5 84q16 48 16 100q0 54 -18 100t-51 79.5t-79 53t-100 19.5q-32 0 -62 -8t-58 -23t-52 -37t-42 -50h-82l94 521h498v-91h-428l-58 -312q19 20 42.5 35t49.5 25.5t53.5 16t55.5 5.5 q76 0 137.5 -26t105.5 -71t67.5 -108t23.5 -137q0 -48 -12.5 -92.5t-35 -82t-54 -67.5t-69.5 -51t-82 -32t-92 -11q-69 0 -127.5 21t-102 61t-68.5 97t-27 129z" />
<glyph unicode="6" horiz-adv-x="778" d="M51 475q0 26 2 63t8 78.5t17 86.5t29 87.5t44.5 80.5t62.5 66.5t84 45.5t108 17q65 0 117.5 -16.5t91.5 -49t63 -82.5t32 -117h-96q-6 41 -22.5 74.5t-42 57.5t-59.5 37q-34 14 -76 14q-53 0 -93.5 -19t-69.5 -50t-48 -73t-31 -88t-16 -93t-4 -91q18 33 45.5 59.5 t61 45.5t71.5 29.5t78 10.5q74 0 134 -24.5t103 -68.5t66.5 -104t23.5 -132t-25 -134t-69.5 -107t-106.5 -70t-134 -25q-93 0 -159.5 33t-108.5 96t-61.5 154.5t-19.5 207.5zM166 314q0 -30 6 -60t19 -57.5t32 -51.5t46 -41.5t61 -27.5q36 -10 78 -10q52 0 94 20t72 54 t46.5 79t16.5 95q0 53 -15.5 99t-45 80.5t-72.5 54.5q-42 20 -98 20q-57 0 -101.5 -20t-75.5 -54.5t-47 -80.5t-16 -99z" />
<glyph unicode="7" horiz-adv-x="778" d="M68 884v91h636v-86q-30 -32 -69 -78t-81 -106.5t-84 -134.5t-75.5 -162.5t-57 -190.5t-28.5 -217h-104q6 84 19.5 161t35.5 150t53.5 143t74 140.5t95.5 142t119 147.5h-534z" />
<glyph unicode="8" horiz-adv-x="778" d="M47 274q2 47 15 88.5t36.5 74.5t57.5 56t78 33q-71 26 -109.5 82t-38.5 136q0 42 12 77t33.5 62t50.5 48t62.5 34t69.5 19.5t73 6.5t74 -6.5t70.5 -19.5t62.5 -34t50.5 -48t33.5 -62t12 -77q0 -39 -10 -73.5t-28.5 -62.5t-46 -49t-63.5 -35q44 -11 79 -33t59 -54t36 -73 q13 -42 13 -90q0 -74 -27.5 -130t-73.5 -93.5t-108 -56t-131 -18.5q-70 0 -132 18.5t-108.5 56t-74 93.5t-27.5 130zM144 274q0 -54 19 -95t52.5 -68t78 -40t95.5 -13t95.5 13t77.5 40t52 67t19 96q0 52 -20 92t-53.5 66t-77.5 39t-93 13q-50 0 -94.5 -12.5t-78 -39t-53 -66 t-19.5 -92.5zM182 744q0 -49 18 -83.5t47 -56t66 -31t76 -8.5q39 -1 76 9t66 32t46 56t17 82q0 40 -16 71t-43.5 52t-65 32t-80.5 11q-40 0 -77.5 -11t-66 -32t-46 -52t-17.5 -71z" />
<glyph unicode="9" horiz-adv-x="778" d="M43 656q0 72 25.5 133t70 106t106 70.5t134.5 25.5q90 0 155.5 -29.5t107.5 -92.5t62.5 -163t20.5 -239q0 -22 -1.5 -54.5t-7.5 -71.5t-17 -81t-29 -82.5t-44 -77t-62 -64.5t-84 -44t-108 -16q-66 0 -118 16t-91 49t-63 82t-32 117h96q5 -40 21.5 -74t42 -58t60 -37 t76.5 -13q54 0 95 18t70 50t48 73.5t30 87.5t15 94t4 92q-19 -33 -46.5 -60t-60.5 -46.5t-71 -30t-78 -10.5q-74 0 -134.5 24t-103 68t-66 105t-23.5 133zM140 662q0 -53 15.5 -99.5t45.5 -81t73.5 -54t97.5 -19.5q57 0 101.5 19.5t75.5 54t47 80.5t16 100q0 46 -14 90 t-43.5 79t-75 57t-109.5 22q-52 0 -94 -20t-72.5 -54t-47 -79t-16.5 -95z" />
<glyph unicode=":" horiz-adv-x="389" d="M131 0v156h127v-156h-127zM131 540v156h127v-156h-127z" />
<glyph unicode=";" horiz-adv-x="389" d="M127 -123q14 6 25.5 19.5t19.5 30.5t12 37q4 19 6 36h-59v156h127v-154q-1 -31 -9.5 -61.5t-24.5 -57.5t-40.5 -47t-56.5 -28v69zM131 540v156h127v-156h-127z" />
<glyph unicode="&#x3c;" horiz-adv-x="839" d="M60 312v84l718 325v-86l-616 -281l616 -282v-84z" />
<glyph unicode="=" horiz-adv-x="839" d="M64 174v84h712v-84h-712zM64 450v82h712v-82h-712z" />
<glyph unicode="&#x3e;" horiz-adv-x="839" d="M60 -10v84l620 282l-620 281v86l718 -325v-84z" />
<glyph unicode="?" horiz-adv-x="751" d="M72 686q0 76 21.5 138.5t62 107t100.5 68.5t137 24q60 0 112.5 -18t91.5 -51t62 -82t23 -111q0 -39 -10 -72.5t-26.5 -63.5t-39 -56t-47.5 -52l-41 -39l-34 -34t-23 -27.5t-15 -27.5t-9 -33t-4.5 -45t-2.5 -64h-96q-2 64 8.5 110t31 83t50.5 70q32 33 70 69 q17 17 33.5 37.5t29.5 44t21 48t8 48.5q0 40 -16 74t-43 58t-63 38t-75 14q-56 0 -97.5 -19.5t-69.5 -54t-41.5 -81.5t-12.5 -101h-96zM320 0v156h124v-156h-124z" />
<glyph unicode="@" horiz-adv-x="1118" d="M62 504q0 74 18 141t51 125t80 105t105 80t124 51q68 18 140 18q68 0 130 -14.5t115 -41.5t96 -65.5t73 -87.5t46 -107q17 -58 17 -124q0 -56 -13.5 -109t-37 -98.5t-55 -83t-68.5 -64t-76 -41t-78 -14.5q-19 0 -36 5t-30 15t-22 26.5t-13 39.5q-16 -17 -35 -32.5 t-41 -26.5t-46 -18t-52 -7q-44 0 -79 16t-59 44t-37 66t-13 81q0 48 11 97t31 94.5t50 85.5t67 69t82 46t95 17q22 0 44.5 -7t42 -20.5t35.5 -34t26 -48.5l30 84h82l-133 -408q-8 -22 -12.5 -42t-4 -36t8 -25t23.5 -9q30 0 58 14.5t54 39.5t48 58.5t37.5 72t24.5 79t9 80.5 q0 84 -31.5 151t-85.5 114t-126 72t-150 25q-64 0 -122 -16t-107 -46t-87.5 -72t-66 -93t-41.5 -109t-14 -122q0 -62 15 -120t43 -108t68 -91t89 -70t105 -45q58 -15 120 -15q50 0 100.5 13t97.5 37.5t88 58.5t72 78h84q-33 -60 -81 -107t-105.5 -80.5t-123.5 -50.5 q-64 -18 -132 -18q-76 0 -144 18t-126 52t-105 82t-79.5 106.5t-50 126.5t-17.5 143zM362 391q0 -30 9 -54.5t24 -42t35.5 -27t44.5 -9.5q31 0 60 15.5t54.5 41.5t46 59.5t35.5 70t23 72.5q8 37 8 67q0 23 -9 45.5t-24 39.5t-34 28t-39 11q-35 0 -65.5 -14t-56.5 -38.5 t-47 -56.5t-35 -67.5t-22 -72t-8 -68.5z" />
<glyph unicode="A" horiz-adv-x="880" d="M-12 0l401 1000h115l389 -1000h-113l-120 312h-439l-121 -312h-112zM252 400h372l-182 484z" />
<glyph unicode="B" horiz-adv-x="934" d="M100 0v1000h418q42 0 83 -5.5t77 -17t66.5 -30.5t53 -46.5t34.5 -64t12 -84.5q0 -38 -11 -73t-32 -64t-50 -52t-65 -35q44 -9 80 -30.5t61 -53t39 -72t14 -86.5q0 -24 -4 -55t-16.5 -62.5t-36.5 -62t-64.5 -54t-99.5 -38t-141 -14.5h-418zM205 90h313h10q48 0 90 8 q47 9 82.5 32t56.5 61.5t21 97.5q0 94 -68 140t-192 46h-313v-385zM205 565h313q57 0 98.5 12.5t69 34.5t41 52t13.5 65q0 181 -222 181h-313v-345z" />
<glyph unicode="C" horiz-adv-x="985" d="M53 500q0 68 13 133t38.5 123t65 106.5t92 83.5t117.5 54.5t145 19.5q48 0 94.5 -9.5t89 -28t79.5 -46.5t66 -65t48 -83t25 -100h-102q-13 58 -41.5 103t-68 76t-88 47t-102.5 16q-66 0 -118.5 -17t-93.5 -47t-70.5 -71t-48.5 -88.5t-28 -100t-9 -106.5t9 -107.5 t28 -101.5t48.5 -89t70.5 -70.5t93.5 -46.5t118.5 -17q68 0 123 25t95 68.5t64 102t32 125.5h102q-10 -94 -43 -169.5t-86 -128.5t-126 -82t-161 -29q-80 0 -145 19t-117.5 54t-92 83.5t-65 106t-38.5 123.5t-13 134z" />
<glyph unicode="D" horiz-adv-x="958" d="M100 0v1000h346q114 -3 200 -35.5t143.5 -94.5t86.5 -154t29 -216q0 -247 -115.5 -371.5t-343.5 -128.5h-346zM205 90h195h9q101 0 173 21q76 22 125 71.5t71.5 127.5t22.5 190q0 110 -22.5 188t-71.5 128t-125 72q-75 22 -178 22h-4h-195v-820z" />
<glyph unicode="E" horiz-adv-x="829" d="M100 0v1000h690v-90h-585v-349h547v-90h-547v-381h591v-90h-696z" />
<glyph unicode="F" horiz-adv-x="751" d="M100 0v1000h635v-90h-530v-349h469v-90h-469v-471h-105z" />
<glyph unicode="G" horiz-adv-x="1036" d="M53 500q0 68 13 133t38.5 123t65 106.5t92 83.5t118.5 54q64 20 144 20t150 -21.5t125 -64t92 -106.5t51 -148h-104q-3 28 -14.5 58t-30.5 58t-46 52t-60.5 42.5t-74 29t-88.5 10.5q-66 0 -118.5 -17t-93.5 -47t-70.5 -71t-48.5 -88.5t-28 -100t-9 -106.5t9 -107.5 t28 -101.5t48.5 -89t70.5 -70.5t94 -46.5q52 -17 118 -17q82 0 145 26t106 73t66 112q21 62 21 136v7h-336v90h428v-512h-78l-14 168q-26 -49 -62.5 -84.5t-80 -58.5t-93.5 -34t-102 -11q-80 0 -145 19t-117.5 54t-92 83.5t-65 106t-38.5 123.5t-13 134z" />
<glyph unicode="H" horiz-adv-x="985" d="M100 0v1000h105v-430h575v430h104v-1000h-104v479h-575v-479h-105z" />
<glyph unicode="I" horiz-adv-x="311" d="M104 0v1000h103v-1000h-103z" />
<glyph unicode="J" horiz-adv-x="698" d="M28 328h105v-19q0 -22 1.5 -48t6.5 -52.5t16 -52.5t31 -45t51 -31t77 -12q54 0 89 14t55 45t28 79q8 50 8 118v676h102v-718q0 -76 -15 -133t-49 -95t-90 -56t-137 -18q-58 0 -101.5 13t-74.5 37t-51 57t-31 72t-16 82t-5 87z" />
<glyph unicode="K" horiz-adv-x="907" d="M100 0v1000h105v-531l567 531h138l-451 -414l471 -586h-134l-413 516l-178 -174v-342h-105z" />
<glyph unicode="L" horiz-adv-x="747" d="M100 0v1000h105v-910h543v-90h-648z" />
<glyph unicode="M" horiz-adv-x="1165" d="M98 0v1000h158l328 -860l324 860h159v-1000h-103v880l-336 -880h-90l-338 880v-880h-102z" />
<glyph unicode="N" horiz-adv-x="985" d="M98 0v1000h128l556 -863v863h102v-1000h-118l-566 870v-870h-102z" />
<glyph unicode="O" horiz-adv-x="1036" d="M47 500q0 68 13 133t39 123t65.5 106.5t91.5 83.5t117.5 54.5t144.5 19.5t144.5 -19.5t117.5 -54.5t91.5 -83.5t65.5 -106.5t39 -123t13 -133t-13 -134t-39 -123.5t-65.5 -106t-91.5 -83.5t-117.5 -54t-144.5 -19q-78 0 -144 19t-118 54t-91.5 83.5t-65.5 106t-39 123.5 t-13 134zM152 500q0 -54 9 -107.5t27.5 -101.5t48 -89t70.5 -70.5t93 -46.5t118 -17t118.5 17t93 46.5t70 70.5t48 89t27.5 101.5t9 107.5t-9 106.5t-27.5 100t-48 88.5t-70 71t-93 47t-118.5 17t-118 -17t-93 -47t-70.5 -71t-48 -88.5t-27.5 -100t-9 -106.5z" />
<glyph unicode="P" horiz-adv-x="880" d="M100 0v1000h440q68 0 123 -20t94.5 -57.5t61 -92t21.5 -122.5t-21.5 -121.5t-61 -90.5t-94.5 -56.5t-123 -19.5h-335v-420h-105zM205 510h313q49 0 89.5 12t69.5 36.5t45 62t16 87.5q0 51 -16 89t-45 63t-69.5 37.5t-89.5 12.5h-313v-400z" />
<glyph unicode="Q" horiz-adv-x="1036" d="M47 500q0 68 13 133t39 123t65.5 106.5t91.5 83.5t117.5 54.5t144.5 19.5t144.5 -19.5t117.5 -54.5t91.5 -83.5t65.5 -106.5t39 -123t13 -133q0 -58 -9.5 -113.5t-27.5 -106t-46 -95.5t-64 -81l139 -106l-53 -64l-154 115q-52 -32 -115 -50.5t-141 -18.5t-144 19t-118 54 t-91.5 83.5t-65.5 106t-39 123.5t-13 134zM152 500q0 -54 9 -107.5t27.5 -101.5t48 -89t70.5 -70.5t93 -46.5t118 -17q53 0 96.5 10t79.5 30l-135 103l55 67l152 -116q30 32 53 70.5t37 82t21 90.5t7 95q0 54 -9 106.5t-27.5 100t-48 88.5t-70 71t-93 47t-118.5 17t-118 -17 t-93 -47t-70.5 -71t-48 -88.5t-27.5 -100t-9 -106.5z" />
<glyph unicode="R" horiz-adv-x="934" d="M100 0v1000h455q42 0 80.5 -7t72.5 -21t62.5 -36t49 -51t31.5 -67t11 -83t-12 -85.5t-34 -74t-55.5 -58t-76.5 -38.5q43 -9 72 -29t47.5 -48t27.5 -64t11 -78q0 -6 1 -14t1 -16q2 -27 4 -59.5t7 -64.5t14 -60t24 -46h-117q-8 14 -13 32.5t-8 38t-4 38.5t-1 35 q-2 38 -6 75t-11 70t-19 61t-33 47.5t-52 29.5q-27 9 -65 9h-11h-348v-436h-105zM205 524h342q43 0 81 13t67 38t46 60t17 80q0 44 -13 80.5t-39.5 61.5t-66 39t-92.5 14h-342v-386z" />
<glyph unicode="S" horiz-adv-x="880" d="M51 338h103q0 -5 -1 -9q0 -73 23 -121q24 -52 67 -83t102 -44t126 -13q26 0 54.5 4.5t57.5 15t55 26t46 37.5t31.5 50.5t11.5 64.5q0 41 -19 70.5t-48.5 51t-64.5 35t-69 21.5l-214 46q-44 12 -86 29t-74 45.5t-51 70t-19 100.5q0 24 6 55t20 62.5t39 61.5t63 54t91.5 38 t124.5 14q75 0 142.5 -20t118 -60.5t80 -100t29.5 -139.5h-104q-2 58 -24 101t-58 72t-83 43t-99 14q-48 0 -92 -10t-77 -33t-53 -60t-20 -92q0 -34 12 -58.5t32 -42t47 -29t57 -17.5l234 -54q54 -14 101.5 -34t83.5 -50.5t57.5 -75t21.5 -106.5q0 -17 -4 -44.5t-16.5 -60 t-37 -65t-67.5 -59t-106 -43t-153 -16.5q-89 0 -163.5 20.5t-128 64t-81.5 111.5q-24 58 -25 137q0 12 1 25z" />
<glyph unicode="T" horiz-adv-x="778" d="M8 910v90h764v-90h-332v-910h-102v910h-330z" />
<glyph unicode="U" horiz-adv-x="958" d="M90 364v636h104v-615v-9q0 -81 18 -138q19 -60 55.5 -98t89.5 -55t122 -17q68 0 121.5 17t90 55t55.5 98q18 59 18 142v5v615h102v-636q0 -52 -9 -101t-28.5 -91.5t-50 -78t-73.5 -60.5t-99.5 -39t-126.5 -14t-126.5 14t-99.5 39t-74 60.5t-51 78t-29 91.5t-9 101z" />
<glyph unicode="V" horiz-adv-x="866" d="M8 1000h113l315 -879l310 879h110l-364 -1000h-120z" />
<glyph unicode="W" horiz-adv-x="1280" d="M12 1000h113l225 -854l232 854h126l236 -854l224 854h104l-276 -1000h-109l-244 872l-239 -872h-113z" />
<glyph unicode="X" horiz-adv-x="835" d="M-2 0l352 514l-332 486h124l272 -412l280 412h117l-334 -488l355 -512h-126l-292 432l-300 -432h-116z" />
<glyph unicode="Y" horiz-adv-x="903" d="M8 1000h123l319 -500l318 500h123l-389 -590v-410h-104v410z" />
<glyph unicode="Z" horiz-adv-x="803" d="M10 0v90l637 820h-591v90h710v-90l-637 -820h637v-90h-756z" />
<glyph unicode="[" horiz-adv-x="338" d="M102 -268v1290h234v-82h-138v-1126h138v-82h-234z" />
<glyph unicode="\" horiz-adv-x="465" d="M-18 1020h80l422 -1040h-84z" />
<glyph unicode="]" horiz-adv-x="338" d="M2 -186h138v1126h-138v82h234v-1290h-234v82z" />
<glyph unicode="^" horiz-adv-x="839" d="M53 330l330 641h73l330 -641h-88l-280 540l-274 -540h-91z" />
<glyph unicode="_" horiz-adv-x="698" d="M0 -96h698v-78h-698v78z" />
<glyph unicode="`" horiz-adv-x="258" d="M-49 1022h117l149 -201h-77z" />
<glyph unicode="a" horiz-adv-x="725" d="M45 194q0 48 13 82t36.5 58t55.5 40t70.5 25.5t81 15.5t87.5 11q42 4 70 10t45.5 16t24.5 27t7 45q0 43 -14 71t-39 44t-58 22.5t-69 6.5q-38 0 -71 -10t-58 -30t-40 -51t-15 -75h-96q3 65 26 112.5t61.5 77.5t90.5 45t114 15q31 0 63 -4t61.5 -14t55 -27t44.5 -43 t30 -63t11 -87v-383q0 -23 12 -36t37 -13q4 0 14 3t16 5v-84q-14 -3 -26 -4.5t-34 -1.5q-32 0 -53 8.5t-33 23.5t-18 35.5t-8 46.5q-22 -33 -46 -58t-53.5 -42t-67 -25.5t-87.5 -8.5q-49 0 -92.5 12.5t-76.5 39t-52.5 66.5t-19.5 96zM142 200q0 -32 13 -58t34 -44t48 -27 t56 -9q48 0 92.5 15t78.5 44t53 70q19 40 20 91q-1 0 -1 2l-2 103q-6 -6 -15.5 -9.5t-26 -8t-41 -9t-60.5 -10.5q-32 -4 -62.5 -9t-58.5 -12t-51.5 -17t-40.5 -25t-26.5 -36.5t-9.5 -50.5z" />
<glyph unicode="b" horiz-adv-x="809" d="M86 0v1008h98v-398q17 35 43.5 61.5t58.5 44.5t68 27t74 9q82 0 143 -31.5t101 -85t60 -123.5t20 -148t-20 -147.5t-60.5 -122t-101 -83.5t-142.5 -31q-40 0 -78 9.5t-70.5 28t-59 44.5t-44.5 59v-121h-90zM182 364q0 -37 6 -73.5t18 -70.5t31 -63t46 -50t63 -33t82 -12 q40 0 73 12t58 33t43 50t30 63t18 71t6 73q0 37 -6 74t-18 70.5t-30 62.5t-43 50.5t-58 34t-73 12.5q-46 0 -82 -12.5t-63 -34t-46 -50.5t-31 -62.5t-18 -70.5t-6 -74z" />
<glyph unicode="c" horiz-adv-x="749" d="M58 362q0 78 22 149t65 124t107 84t148 31q58 0 108 -16t88 -48.5t63 -80t33 -111.5h-96q-9 40 -25.5 71.5t-40.5 54t-56 34.5t-74 12q-63 0 -109.5 -26t-77 -69t-45 -97t-14.5 -112q0 -57 14.5 -111t45 -96.5t76.5 -68.5t110 -26q40 0 75 15t61 42t43 65t21 82h96 q-8 -66 -33 -119t-63 -90t-89 -57t-111 -20q-56 0 -103 14t-85 39t-67 60.5t-48.5 78t-29 91.5t-9.5 101z" />
<glyph unicode="d" horiz-adv-x="809" d="M58 362q0 78 19 148t59 123.5t101 85t144 31.5q39 0 76 -9t69 -27t58 -44t42 -62v398h97v-1008h-90l-2 121q-17 -32 -44 -58.5t-60 -44.5t-70 -28t-76 -10q-83 0 -144 31t-101 83.5t-59 122t-19 147.5zM154 362q0 -37 5 -73.5t16.5 -70.5t29.5 -63t43.5 -50t58.5 -33 t74 -12q46 0 82 12t63.5 33t46.5 50t31 63t17 71t5 73q0 37 -5 74t-17 70.5t-31 62.5t-46.5 50.5t-63.5 34t-82 12.5q-42 0 -74.5 -12.5t-58 -34t-43.5 -50.5t-29.5 -62.5t-16.5 -70.5t-5 -74z" />
<glyph unicode="e" horiz-adv-x="766" d="M58 352q0 48 8 96.5t25 93t44 82.5t63 66.5t82 45t103 16.5q58 0 104.5 -16.5t82.5 -45t61.5 -68t41.5 -85t23 -97.5q5 -39 5 -78q-1 -12 -1 -24h-546q0 -32 6 -65t18 -63.5t30 -57.5t44 -47t58 -31.5t73 -11.5q46 0 82 13t63 37.5t45.5 58.5t28.5 75h96 q-14 -64 -39.5 -113.5t-64 -83.5t-91.5 -51.5t-120 -17.5q-86 0 -147.5 29t-101 79.5t-58 118t-18.5 145.5zM154 420h450q-2 49 -17 93.5t-43.5 79t-69 55t-91.5 20.5q-52 0 -92 -21t-68.5 -55t-45.5 -79t-23 -93z" />
<glyph unicode="f" horiz-adv-x="379" d="M8 647v82h123v63q0 47 7.5 86.5t28 68.5t55.5 45q36 16 90 16q22 0 39 -2t38 -4v-84q-18 3 -33.5 4.5t-35.5 1.5q-34 0 -53 -11t-27 -29t-10 -42q-2 -26 -2 -54v-59h142v-82h-142v-647h-97v647h-123z" />
<glyph unicode="g" horiz-adv-x="790" d="M58 383q0 50 10 96.5t29 87.5t47 75t64 58.5t80 38t95 13.5q36 0 69.5 -10t62.5 -27t53 -40t40 -51v105h96v-665q-1 -82 -17.5 -147t-54.5 -111t-99 -70.5t-150 -24.5q-36 0 -70.5 5.5t-67 17.5t-60.5 31t-49.5 44t-35 57t-16.5 72h96q8 -40 28 -67t47.5 -44t60.5 -24.5 t67 -7.5q59 0 102 17.5t70 51.5t40 84t13 116l-4 67q-16 -26 -40 -48t-53 -38.5t-62 -26.5t-66 -10q-86 0 -147.5 29.5t-101 80.5t-58 119t-18.5 146zM154 372q0 -54 14 -104.5t42 -90t71 -63.5t102 -24q56 0 97.5 24t70.5 63.5t43 90.5q14 50 14 104q0 35 -5 70.5t-17 68.5 t-30 61.5t-43 49.5t-57 33.5t-73 12.5q-40 0 -73 -12t-58.5 -32t-44 -48t-30.5 -61t-17.5 -69.5t-5.5 -73.5z" />
<glyph unicode="h" horiz-adv-x="758" d="M86 0v1008h96l4 -380q14 29 37.5 52.5t53 39t63.5 24t68 8.5q76 0 126.5 -20t81 -56.5t43.5 -89t13 -117.5v-469h-96v454q0 46 -8.5 85t-28.5 68t-53.5 45t-83.5 16t-90 -18.5t-68 -51t-44 -76.5t-18 -96v-426h-96z" />
<glyph unicode="i" horiz-adv-x="293" d="M98 0v729h96v-729h-96zM98 858v150h96v-150h-96z" />
<glyph unicode="j" horiz-adv-x="293" d="M-28 -184h16h34q24 0 39 7t23 21t11 32t3 40v813h96v-793q0 -40 -6.5 -77t-24 -64.5t-48.5 -44t-78 -16.5l-65 2v80zM98 858v150h96v-150h-96z" />
<glyph unicode="k" horiz-adv-x="723" d="M86 0v1008h96v-625l388 346h130l-315 -273l332 -456h-121l-284 391l-130 -115v-276h-96z" />
<glyph unicode="l" horiz-adv-x="293" d="M98 0v1008h96v-1008h-96z" />
<glyph unicode="m" horiz-adv-x="1157" d="M86 0v729h90l4 -98q36 57 92 89t132 32q34 0 66 -8t58.5 -24t47 -41t30.5 -59q17 34 41.5 59t54.5 41t63 24t67 8q116 0 177.5 -65t61.5 -193v-494h-96v490q0 44 -8.5 77t-27.5 55t-50 34t-76 12q-54 0 -90.5 -21.5t-58.5 -57t-31 -81.5t-9 -96v-412h-96v494q0 2 1 4 q0 33 -7 63q-7 32 -24.5 55.5t-45 37.5t-67.5 14q-54 0 -92.5 -20t-62.5 -55t-36 -82t-12 -103v-408h-96z" />
<glyph unicode="n" horiz-adv-x="766" d="M86 0v729h96l4 -98q20 34 44.5 57.5t53 37.5t60.5 20t68 6q78 0 129 -20t82 -56.5t44 -89t13 -117.5v-469h-96v454q0 46 -8.5 85t-29 68t-54.5 45t-86 16t-93 -18.5t-69 -51t-44 -76.5t-18 -96v-426h-96z" />
<glyph unicode="o" horiz-adv-x="778" d="M47 360q0 52 10 101t30 92t49 79t67 61.5t84.5 40t101.5 14.5q82 0 146 -31t107.5 -84t66 -124t22.5 -149q0 -52 -10 -101t-29.5 -91.5t-49 -78t-67.5 -60.5t-84.5 -39t-101.5 -14q-54 0 -101 14t-85 39t-67 60.5t-48.5 78t-30 91.5t-10.5 101zM144 360q0 -57 15 -111 t46 -96.5t77 -68.5t107 -26q62 0 107.5 26t76 68.5t45.5 97t15 110.5q0 57 -15 111.5t-45.5 97.5t-76.5 69t-107 26q-62 0 -107.5 -26t-76.5 -69t-46 -97.5t-15 -111.5z" />
<glyph unicode="p" horiz-adv-x="809" d="M86 -266v995h90l2 -121q17 34 42.5 61t58.5 45t71 28t78 10q82 0 142.5 -31.5t101 -85t60.5 -123.5t20 -148t-20 -147.5t-60.5 -122t-101 -83.5t-142.5 -31q-38 0 -74 8t-68.5 25.5t-59 44t-44.5 61.5v-385h-96zM182 364q0 -37 6 -73.5t18 -70.5t31 -63t46 -50t63 -33 t82 -12q40 0 73 12t58 33t43 50t30 63t18 71t6 73q0 37 -6 74t-18 70.5t-30 62.5t-43 50.5t-58 34t-73 12.5q-46 0 -83 -11.5t-64 -31.5t-46 -48.5t-30.5 -61.5t-17 -72t-5.5 -79z" />
<glyph unicode="q" horiz-adv-x="809" d="M58 364q0 78 20 148t60 123.5t101 85t142 31.5q38 0 75.5 -7.5t70 -24t59.5 -42.5q28 -28 47 -66v117h90v-995h-97l-2 378q-17 -34 -42.5 -59t-57.5 -41.5t-69 -24t-74 -7.5q-82 0 -142.5 31t-100.5 83.5t-60 122t-20 147.5zM154 364q0 -37 5 -73.5t17 -70.5t30 -63 t44 -50t58 -33t73 -12q46 0 81.5 12t63 33t46.5 50t31.5 63t17.5 71t5 73q0 37 -5 74t-17.5 70.5t-31.5 62.5t-46.5 50.5t-63.5 34t-81 12.5q-40 0 -72.5 -12.5t-58.5 -34t-44 -50.5t-30 -62.5t-17 -70.5t-5 -74z" />
<glyph unicode="r" horiz-adv-x="454" d="M86 0v729h90l2 -149q18 39 44 69.5t60 51.5t76 31q34 8 73 8h15v-97h-16q-50 1 -92 -15q-49 -18 -83.5 -53t-53.5 -83t-19 -103v-389h-96z" />
<glyph unicode="s" horiz-adv-x="674" d="M43 242h97q3 -44 19.5 -78t43.5 -57t63 -34t78 -11q28 0 61 7t61.5 22.5t47 41t18.5 61.5q0 30 -13 52t-34 36t-49 23t-57 17l-107 24q-43 10 -80.5 24.5t-65 37t-43 56.5t-15.5 81q0 36 11 66t31 53t47 39.5t57 27.5t62 16t64 5q53 0 100 -15t82.5 -45t57.5 -75t24 -107 h-96q-2 42 -17 71.5t-39.5 49t-56 28.5t-67.5 9q-27 0 -56 -6.5t-53 -20t-39.5 -36.5t-15.5 -56q0 -30 15 -49.5t37 -33.5t48 -22t48 -14l108 -26q44 -10 82 -26t66 -40t44 -58t16 -80q0 -40 -12 -71.5t-33 -56t-49 -42.5t-60 -29t-66.5 -16t-67.5 -5q-62 0 -114 15t-91 47 t-62.5 82t-29.5 118z" />
<glyph unicode="t" horiz-adv-x="393" d="M2 647v82h125v217h96v-217h147v-82h-147v-481q0 -21 2.5 -37.5t9.5 -28t20 -18t36 -8.5q22 0 41.5 1t37.5 3v-84l-42 -2h-39q-46 0 -77.5 8t-50 27t-26.5 51t-8 80v489h-125z" />
<glyph unicode="u" horiz-adv-x="758" d="M86 258v471h96v-473q2 -48 12 -85t32 -61t57 -36t85 -12q54 0 93 24t64.5 64t38 91t12.5 105v383h96v-729h-88l-4 102q-20 -37 -45 -60.5t-55 -37.5t-65 -19t-75 -5q-68 0 -116 19t-79 56t-45 88t-14 115z" />
<glyph unicode="v" horiz-adv-x="647" d="M0 729h108l222 -623l215 623h102l-268 -729h-103z" />
<glyph unicode="w" horiz-adv-x="1030" d="M4 729h104l183 -602l170 602h107l174 -604l178 604h104l-234 -729h-104l-174 594l-170 -594h-104z" />
<glyph unicode="x" horiz-adv-x="674" d="M2 0l276 379q-64 88 -129 175t-129 175h115l203 -273l200 273h114l-259 -348l281 -381h-117l-223 303l-222 -303h-110z" />
<glyph unicode="y" horiz-adv-x="647" d="M0 729h104l230 -604l215 604h98l-311 -837q-20 -46 -37 -77t-38 -49t-49 -25t-70 -7q-28 0 -45 1t-27 5v82q16 -4 32 -5t33 -1q27 0 45.5 8t32 23t23.5 35t20 44l30 80z" />
<glyph unicode="z" horiz-adv-x="651" d="M24 0v78l458 569h-424v82h550v-67l-464 -580h478v-82h-598z" />
<glyph unicode="{" horiz-adv-x="465" d="M112 334v82q30 0 50 19t31 50t15.5 71t4.5 81v207q0 40 8.5 73t24.5 56t39.5 35t54.5 12h74v-82h-33q-20 0 -33.5 -12t-22.5 -31t-12.5 -44t-3.5 -53v-194q1 -49 -9 -87.5t-25 -66.5t-31 -46.5t-27 -28.5q10 -7 26 -23.5t31 -44t25.5 -67.5t9.5 -92v-195q0 -27 3.5 -52 t12.5 -44t22.5 -30t33.5 -11h33v-82h-74q-31 0 -54.5 12t-39.5 34.5t-24.5 55t-8.5 74.5v204q0 40 -4.5 80t-15.5 71t-31 50t-50 19z" />
<glyph unicode="|" horiz-adv-x="311" d="M114 -20v1040h82v-1040h-82z" />
<glyph unicode="}" horiz-adv-x="465" d="M51 -184h33q20 0 34 11t23 30t13 44t4 52v195q-1 52 8.5 91t24 67.5t30 46t25.5 24.5q-10 7 -25.5 23.5t-30 44t-24.5 67t-8 92.5v194q0 27 -4 52.5t-13 44.5t-23 31t-34 12h-33v82h74q32 0 55.5 -12t40.5 -35t25 -56t8 -73v-207q0 -42 4 -81t15 -69.5t31 -49.5t50 -19 v-82q-31 0 -50.5 -19t-30.5 -50t-15 -70t-4 -81v-206q0 -83 -33 -129.5t-96 -46.5h-74v82z" />
<glyph unicode="~" horiz-adv-x="839" d="M92 312q12 23 28 45.5t38 40.5t50 29t64 11q19 0 39.5 -4t40.5 -10t40 -14q21 -6 40 -14q40 -19 76 -34q36 -14 62 -14q20 0 37 8.5t32 22.5t28 32.5t25 36.5l60 -57q-16 -23 -34 -45.5t-39.5 -40t-49 -28.5t-61.5 -11q-21 0 -40.5 4t-39 10t-38.5 14q-18 10 -36 18 t-36.5 16t-37 14.5t-37.5 10t-39 3.5q-23 0 -40.5 -8.5t-31.5 -23t-25 -32.5t-19 -36z" />
<glyph d="M-887 994l37 73h545v-73h-582z" />
<glyph unicode="&#xf701;" d="M-887 994l37 73h545v-73h-582z" />
<glyph d="M-887 994l37 73h450v131h95v-204h-582z" />
<glyph unicode="&#xf702;" d="M-887 994l37 73h450v131h95v-204h-582z" />
<glyph d="M-887 994l37 73h312q-6 11 -10 27q-5 14 -5 30q0 28 10.5 52t28.5 42t41.5 29t50.5 11q28 0 52.5 -11t42.5 -29t28 -42t10 -52t-10 -51.5t-28 -41t-42.5 -27.5t-52.5 -10h-465zM-486 1124q0 -13 5 -24.5t14 -20t20.5 -13.5t24.5 -5t24.5 5t20.5 13.5t14 20.5t5 24 q0 13 -5 24.5t-14 20.5t-20.5 14t-24.5 5t-24.5 -5t-20.5 -14t-14 -20.5t-5 -24.5z" />
<glyph unicode="&#xf703;" d="M-887 994l37 73h312q-6 11 -10 27q-5 14 -5 30q0 28 10.5 52t28.5 42t41.5 29t50.5 11q28 0 52.5 -11t42.5 -29t28 -42t10 -52t-10 -51.5t-28 -41t-42.5 -27.5t-52.5 -10h-465zM-486 1124q0 -13 5 -24.5t14 -20t20.5 -13.5t24.5 -5t24.5 5t20.5 13.5t14 20.5t5 24 q0 13 -5 24.5t-14 20.5t-20.5 14t-24.5 5t-24.5 -5t-20.5 -14t-14 -20.5t-5 -24.5z" />
<glyph d="M-897 994l37 73h252v131h92v-131h118v131h93v-204h-592z" />
<glyph unicode="&#xf704;" d="M-897 994l37 73h252v131h92v-131h118v131h93v-204h-592z" />
<glyph d="M-440 994v233h94v-233h-94z" />
<glyph unicode="&#xf705;" d="M-440 994v233h94v-233h-94z" />
<glyph d="M-735 1122v68h153v-125q58 0 97 11.5t64.5 29t39 40t21.5 44.5h100q-2 -18 -12 -39.5t-26.5 -43.5t-41 -42.5t-57.5 -36.5t-74 -25t-92 -9h-101v128h-71z" />
<glyph unicode="&#xf706;" d="M-735 1122v68h153v-125q58 0 97 11.5t64.5 29t39 40t21.5 44.5h100q-2 -18 -12 -39.5t-26.5 -43.5t-41 -42.5t-57.5 -36.5t-74 -25t-92 -9h-101v128h-71z" />
<glyph d="M-834 994q-4 42 6 74t27 53t39 32t43 11q22 0 39.5 -6t30.5 -16t21 -24t12 -30q3 16 11.5 30t21.5 24t29 16t34 6q20 0 37.5 -6t31.5 -19t23.5 -33t13.5 -47q16 2 33 12t30.5 26.5t21.5 39.5q7 23 7 53h94q0 -28 -7.5 -53t-21 -47t-30.5 -39t-36.5 -30t-39.5 -20 q-21 -7 -39 -7h-77q-2 17 -4.5 33.5t-8.5 30t-15 22t-23 8.5q-13 0 -22.5 -8t-15.5 -21.5t-9 -30.5q-3 -16 -3 -34h-74q0 18 -3 35t-9 30t-15 21t-21 8q-14 0 -24 -8.5t-15.5 -22t-7.5 -30.5q-3 -17 -1 -33h-84z" />
<glyph unicode="&#xf707;" d="M-834 994q-4 42 6 74t27 53t39 32t43 11q22 0 39.5 -6t30.5 -16t21 -24t12 -30q3 16 11.5 30t21.5 24t29 16t34 6q20 0 37.5 -6t31.5 -19t23.5 -33t13.5 -47q16 2 33 12t30.5 26.5t21.5 39.5q7 23 7 53h94q0 -28 -7.5 -53t-21 -47t-30.5 -39t-36.5 -30t-39.5 -20 q-21 -7 -39 -7h-77q-2 17 -4.5 33.5t-8.5 30t-15 22t-23 8.5q-13 0 -22.5 -8t-15.5 -21.5t-9 -30.5q-3 -16 -3 -34h-74q0 18 -3 35t-9 30t-15 21t-21 8q-14 0 -24 -8.5t-15.5 -22t-7.5 -30.5q-3 -17 -1 -33h-84z" />
<glyph d="M-622 1104v68h124v108h98v-108h130v-68h-130v-110h-98v110h-124z" />
<glyph unicode="&#xf708;" d="M-622 1104v68h124v108h98v-108h130v-68h-130v-110h-98v110h-124z" />
<glyph d="M-551 994q6 48 26.5 83t53.5 58.5t79 36.5q48 13 106 16v-66q-71 -5 -115 -38q-43 -32 -51 -90h-99z" />
<glyph unicode="&#xf709;" d="M-551 994q6 48 26.5 83t53.5 58.5t79 36.5q48 13 106 16v-66q-71 -5 -115 -38q-43 -32 -51 -90h-99z" />
<glyph d="M-186 994v233h94v-233h-94z" />
<glyph unicode="&#xf70a;" d="M-186 994v233h94v-233h-94z" />
<glyph d="M-446 1122v68h153v-125q58 0 97 11.5t64.5 29t39.5 40t20 44.5h100q-2 -18 -11 -39.5t-26 -43.5t-41.5 -42.5t-57.5 -36.5t-74.5 -25t-91.5 -9h-101v128h-71z" />
<glyph unicode="&#xf70b;" d="M-446 1122v68h153v-125q58 0 97 11.5t64.5 29t39.5 40t20 44.5h100q-2 -18 -11 -39.5t-26 -43.5t-41.5 -42.5t-57.5 -36.5t-74.5 -25t-91.5 -9h-101v128h-71z" />
<glyph d="M-547 994q-4 42 5.5 74t26.5 53t39 32t44 11t39.5 -6t30 -16t20.5 -24t12 -30q3 16 12 30t21.5 24t28.5 16t34 6q20 0 38 -6t32 -19t23.5 -33t13.5 -47q16 2 32.5 12t30.5 26.5t22 39.5t7 53h95q0 -42 -17 -77t-43 -61.5t-56 -41.5q-30 -16 -58 -16h-78q-2 17 -5 33.5 t-8 30t-15 22.5q-10 8 -24 8q-13 0 -22.5 -8t-15.5 -21.5t-8 -30.5q-3 -16 -3 -34h-73q0 18 -3 35t-9.5 30t-16 21t-21.5 8q-14 0 -23.5 -8.5t-15 -22t-7.5 -30.5t-1 -33h-84z" />
<glyph unicode="&#xf70c;" d="M-547 994q-4 42 5.5 74t26.5 53t39 32t44 11t39.5 -6t30 -16t20.5 -24t12 -30q3 16 12 30t21.5 24t28.5 16t34 6q20 0 38 -6t32 -19t23.5 -33t13.5 -47q16 2 32.5 12t30.5 26.5t22 39.5t7 53h95q0 -42 -17 -77t-43 -61.5t-56 -41.5q-30 -16 -58 -16h-78q-2 17 -5 33.5 t-8 30t-15 22.5q-10 8 -24 8q-13 0 -22.5 -8t-15.5 -21.5t-8 -30.5q-3 -16 -3 -34h-73q0 18 -3 35t-9.5 30t-16 21t-21.5 8q-14 0 -23.5 -8.5t-15 -22t-7.5 -30.5t-1 -33h-84z" />
<glyph d="M-316 1104v68h126v108h98v-108h129v-68h-129v-110h-98v110h-126z" />
<glyph unicode="&#xf70d;" d="M-316 1104v68h126v108h98v-108h129v-68h-129v-110h-98v110h-126z" />
<glyph d="M-284 994q6 48 26 83t53 58.5t79 36.5q48 13 106 16v-66q-71 -5 -114.5 -37.5t-51.5 -90.5h-98z" />
<glyph unicode="&#xf70e;" d="M-284 994q6 48 26 83t53 58.5t79 36.5q48 13 106 16v-66q-71 -5 -114.5 -37.5t-51.5 -90.5h-98z" />
<glyph d="M-600 994v146h94v-73h580v-73h-674z" />
<glyph unicode="&#xf710;" d="M-600 994v146h94v-73h580v-73h-674z" />
<glyph d="M-553 1114q0 28 10 52.5t27.5 42.5t41 28t50.5 10q28 0 52.5 -10t42.5 -28t28 -42.5t10 -52.5q0 -27 -10 -50.5t-28 -41t-42.5 -27.5t-52.5 -10q-27 0 -50.5 10t-41 27.5t-27.5 41t-10 50.5zM-484 1114q0 -12 5 -23t13 -19t19 -13t23 -5q14 0 25.5 5t20 13t13.5 19t5 23 q0 28 -18 46t-46 18q-12 0 -23 -5t-19 -13.5t-13 -20t-5 -25.5z" />
<glyph unicode="&#xf711;" d="M-553 1114q0 28 10 52.5t27.5 42.5t41 28t50.5 10q28 0 52.5 -10t42.5 -28t28 -42.5t10 -52.5q0 -27 -10 -50.5t-28 -41t-42.5 -27.5t-52.5 -10q-27 0 -50.5 10t-41 27.5t-27.5 41t-10 50.5zM-484 1114q0 -12 5 -23t13 -19t19 -13t23 -5q14 0 25.5 5t20 13t13.5 19t5 23 q0 28 -18 46t-46 18q-12 0 -23 -5t-19 -13.5t-13 -20t-5 -25.5z" />
<glyph d="M-832 1147q0 44 16.5 74.5t44 50.5t63.5 29t75 9h373v-73h-356q-38 0 -61 -10.5t-35 -25.5t-15.5 -30t-3.5 -24q0 -8 2 -21.5t9.5 -26.5t21.5 -23q14 -9 40 -9q32 0 52 21q20 22 22 59h68q0 -17 4 -31.5t12 -25t21 -17t33 -6.5t33 7.5t21 18.5t10 25.5t1 28.5h90 q4 -34 -2.5 -63.5t-23.5 -51t-45 -33.5t-68 -12q-28 0 -49 8t-36 20.5t-24 29t-12 32.5q-3 -16 -12.5 -32.5t-25.5 -29.5t-38.5 -21t-50.5 -7q-43 2 -72.5 18.5t-47.5 40.5t-26 51t-8 50z" />
<glyph unicode="&#xf712;" d="M-832 1147q0 44 16.5 74.5t44 50.5t63.5 29t75 9h373v-73h-356q-38 0 -61 -10.5t-35 -25.5t-15.5 -30t-3.5 -24q0 -8 2 -21.5t9.5 -26.5t21.5 -23q14 -9 40 -9q32 0 52 21q20 22 22 59h68q0 -17 4 -31.5t12 -25t21 -17t33 -6.5t33 7.5t21 18.5t10 25.5t1 28.5h90 q4 -34 -2.5 -63.5t-23.5 -51t-45 -33.5t-68 -12q-28 0 -49 8t-36 20.5t-24 29t-12 32.5q-3 -16 -12.5 -32.5t-25.5 -29.5t-38.5 -21t-50.5 -7q-43 2 -72.5 18.5t-47.5 40.5t-26 51t-8 50z" />
<glyph d="M-400 1306v214h95v-214h-95z" />
<glyph unicode="&#xf713;" d="M-400 1306v214h95v-214h-95z" />
<glyph d="M-672 1436v67h154v-125q58 0 97 11.5t64 29t39 40t21 44.5h101q-2 -18 -12 -39.5t-27 -43.5t-41 -42t-57 -36t-75 -26t-92 -10h-100v130h-72z" />
<glyph unicode="&#xf714;" d="M-672 1436v67h154v-125q58 0 97 11.5t64 29t39 40t21 44.5h101q-2 -18 -12 -39.5t-27 -43.5t-41 -42t-57 -36t-75 -26t-92 -10h-100v130h-72z" />
<glyph d="M-706 1306q-4 42 5 74t26 53.5t39 32t44 10.5t39.5 -5.5t30 -16t20.5 -24t12 -29.5q3 16 12 29.5t22 24t29 16t34 5.5q20 0 37.5 -6t31.5 -18t24 -32t14 -48q16 2 32.5 12t30 27t21.5 40t8 52h94q0 -28 -8 -53t-21 -46.5t-30.5 -39.5t-37 -30.5t-39.5 -19.5 q-20 -8 -38 -8h-78q-2 17 -5 34t-8 30.5t-15 21.5q-10 9 -24 9q-13 0 -22 -8.5t-15 -21.5t-8.5 -30t-2.5 -35h-74q0 18 -3 35.5t-9 31t-16 21.5q-10 7 -22 7q-14 0 -23 -8.5t-15 -22t-8 -30t0 -34.5h-84z" />
<glyph unicode="&#xf715;" d="M-706 1306q-4 42 5 74t26 53.5t39 32t44 10.5t39.5 -5.5t30 -16t20.5 -24t12 -29.5q3 16 12 29.5t22 24t29 16t34 5.5q20 0 37.5 -6t31.5 -18t24 -32t14 -48q16 2 32.5 12t30 27t21.5 40t8 52h94q0 -28 -8 -53t-21 -46.5t-30.5 -39.5t-37 -30.5t-39.5 -19.5 q-20 -8 -38 -8h-78q-2 17 -5 34t-8 30.5t-15 21.5q-10 9 -24 9q-13 0 -22 -8.5t-15 -21.5t-8.5 -30t-2.5 -35h-74q0 18 -3 35.5t-9 31t-16 21.5q-10 7 -22 7q-14 0 -23 -8.5t-15 -22t-8 -30t0 -34.5h-84z" />
<glyph d="M-528 1417v68h124v109h99v-109h129v-68h-129v-111h-99v111h-124z" />
<glyph unicode="&#xf716;" d="M-528 1417v68h124v109h99v-109h129v-68h-129v-111h-99v111h-124z" />
<glyph d="M-404 1214q6 48 26.5 83t54 59t79.5 37t104 16v-65q-70 -4 -114 -38t-51 -92h-99z" />
<glyph unicode="&#xf717;" d="M-404 1214q6 48 26.5 83t54 59t79.5 37t104 16v-65q-70 -4 -114 -38t-51 -92h-99z" />
<glyph unicode="&#xa2;" horiz-adv-x="778" d="M72 360q0 70 21.5 134.5t61 115.5t95.5 86q54 34 122 46v124h64v-120q54 -3 102 -21.5t84 -50.5t60 -78t30 -106h-96q-8 37 -24 67t-38 52.5t-52 35.5t-66 17v-602q36 4 68 20.5t57 43.5t41 62.5t20 77.5h97q-8 -64 -32 -116t-60.5 -89t-85 -58t-105.5 -23v-142h-64v142 q-68 12 -123 47t-94.5 86t-61 115t-21.5 134zM168 360q0 -48 14 -96t41 -89t65 -71q36 -30 84 -42v598q-48 -12 -85 -42t-64 -71t-41 -90t-14 -97z" />
<glyph unicode="&#xa3;" horiz-adv-x="778" d="M51 60q33 26 62.5 53.5t52 59.5t34.5 68q13 37 13 77q0 14 -3 32t-8 37t-12 37q-6 18 -14 32h-116v54h84q-16 26 -29 52t-23 52t-15 54t-5 59q0 77 27 132t72 91t103 53q60 17 122 17q78 0 139 -24t103.5 -68t64 -107t20.5 -141h-97q0 56 -14.5 103t-44 82t-72.5 54 t-99 19q-43 0 -84.5 -13t-73.5 -40t-51 -68t-19 -96q0 -22 3 -39.5t8 -33t12 -29t14 -27.5q10 -17 17 -29t12.5 -21.5t9 -16.5t6.5 -15h223v-54h-193q7 -12 12.5 -28.5t9.5 -34.5t5.5 -35.5t1.5 -29.5q0 -37 -10 -69.5t-26.5 -62t-38.5 -55.5q-24 -26 -48 -49q26 12 50 19.5 t53 7.5q20 0 38.5 -2t36.5 -6t36 -11q18 -6 40 -14q26 -10 53 -17t60 -7q20 0 41.5 6t42.5 17.5t41 26.5q18 14 34 32l54 -76q-24 -22 -48 -38.5t-50 -27.5t-54 -16.5t-61 -5.5q-45 0 -81 7t-66 19q-26 11 -64 21t-78 10q-18 0 -35 -3.5t-32.5 -9.5t-29 -13.5t-25.5 -14.5 l-32 -20z" />
<glyph unicode="&#xa5;" horiz-adv-x="778" d="M0 1000h108l279 -504l281 504h106l-297 -508h149v-70h-188q-1 -1 -1.5 -2.5t-0.5 -3.5l-2 -4v-98h192v-72h-192v-242h-96v242h-188v72h188v98l-8 10h-180v70h145z" />
<glyph unicode="&#xa9;" horiz-adv-x="1118" d="M35 500q0 74 18.5 141.5t51.5 126t80.5 105.5t106 81t125.5 52t142 18q74 0 142.5 -18t126.5 -52t105 -81t81 -105.5t52 -126t18 -141.5t-18 -142t-52 -126t-81 -105.5t-105 -81t-126 -51.5t-143 -18q-74 0 -141.5 18t-126 51.5t-106 81t-80.5 105.5t-51.5 126t-18.5 142 zM125 500q0 -62 15 -118.5t42.5 -106t66.5 -89.5t87 -68.5t104.5 -44t118.5 -15.5t118.5 15.5t105 44t88 68.5t67.5 89.5t43 106t15 118.5q0 61 -15 117.5t-43 105.5t-67.5 89t-88 69t-105 45t-118.5 16t-118.5 -16t-104.5 -45t-87 -69t-66.5 -89t-42.5 -105.5t-15 -117.5z M295 492q0 64 18.5 122t53.5 101t87 69q54 25 122 25q48 0 88 -13t71.5 -39.5t52 -66t27.5 -92.5h-77q-8 33 -21.5 59.5t-33 44.5t-46.5 28t-61 10q-52 0 -90 -21.5t-62.5 -56t-36.5 -79.5t-12 -91q0 -47 12 -91.5t36.5 -79.5t62.5 -56t90 -21q33 0 61.5 12t50 34.5t35 53 t17.5 68.5h79q-7 -54 -27 -98t-51.5 -75t-73 -47t-91.5 -16q-68 0 -121 25t-88 68t-53.5 101t-18.5 122z" />
<glyph unicode="&#xab;" horiz-adv-x="596" d="M80 338v94l194 180v-108l-126 -119q31 -28 63.5 -59.5t62.5 -59.5v-110zM305 338v94l195 180v-108l-128 -119q31 -28 64 -59q34 -32 64 -60v-110z" />
<glyph unicode="&#xad;" horiz-adv-x="588" d="M64 314v82h460v-82h-460z" />
<glyph unicode="&#xae;" horiz-adv-x="1118" d="M35 500q0 74 18.5 141.5t51.5 126t80.5 105.5t106 81t125.5 52t142 18q74 0 142.5 -18t126.5 -52t105 -81t81 -105.5t52 -126t18 -141.5t-18 -142t-52 -126t-81 -105.5t-105 -81t-126 -51.5t-143 -18q-74 0 -141.5 18t-126 51.5t-106 81t-80.5 105.5t-51.5 126t-18.5 142 zM125 500q0 -62 15 -118.5t42.5 -106t66.5 -89.5t87 -68.5t104.5 -44t118.5 -15.5t118.5 15.5t105 44t88 68.5t67.5 89.5t43 106t15 118.5q0 61 -15 117.5t-43 105.5t-67.5 89t-88 69t-105 45t-118.5 16t-118.5 -16t-104.5 -45t-87 -69t-66.5 -89t-42.5 -105.5t-15 -117.5z M366 194v611h236q104 0 151.5 -43.5t47.5 -128.5q0 -40 -11.5 -69.5t-31.5 -50.5t-46 -34t-56 -18l178 -267h-99l-170 267h-117v-267h-82zM448 532h94q22 0 44 1t41.5 4t36 9.5t29 17.5t19.5 28t7 41q0 30 -12 49.5t-31.5 30.5t-44.5 15.5t-51 4.5h-132v-201z" />
<glyph unicode="&#xbb;" horiz-adv-x="596" d="M96 156v110l127 119l-127 119v108l195 -180v-94zM322 156v110l126 119l-126 119v108l194 -180v-94z" />
<glyph unicode="&#xbc;" horiz-adv-x="1167" d="M62 768v72q36 2 66 7t52 19t37 39.5t23 69.5h69v-605h-79v443q-30 -24 -73 -33.5t-95 -11.5zM205 0l593 1000h82l-591 -1000h-84zM598 140v65l301 399h72v-397h94v-67h-94v-140h-80v140h-293zM682 207h209v279z" />
<glyph unicode="&#xbd;" horiz-adv-x="1167" d="M62 768v72q36 2 66 7t52 19t37 39.5t23 69.5h69v-605h-79v443q-30 -24 -73 -33.5t-95 -11.5zM205 0l596 1000h81l-593 -1000h-84zM666 0q0 50 17 88t44 67t61 53t70 46q24 14 53.5 32t55 41t42.5 51t17 62q0 26 -11 46t-30 34t-44 21.5t-52 7.5q-36 0 -61.5 -13.5 t-42 -35t-24 -50t-5.5 -59.5h-78q-1 50 11.5 91.5t39 71.5t67.5 46t97 16q46 0 84.5 -11t66.5 -33t44 -56t16 -80q0 -38 -13 -69t-35 -56t-49 -46t-55 -37q-80 -43 -129 -81.5t-67 -78.5h344v-68h-434z" />
<glyph unicode="&#xbe;" horiz-adv-x="1167" d="M68 600h76q-2 -32 7.5 -59t28 -46t45.5 -30t61 -11q28 0 55 8t48 22.5t34 36t13 49.5q0 27 -11.5 47t-31 33.5t-45.5 20.5t-55 7h-53v66h53q20 0 41.5 5.5t39.5 17t29 29.5t11 42t-11 42.5t-28.5 31t-40.5 18.5q-24 6 -48 6q-32 0 -56 -10.5t-40.5 -29.5t-25.5 -45 q-8 -27 -8 -57h-76q0 44 14 82t40.5 65.5t65 43t86.5 15.5q40 0 77 -9t65 -28t45 -49t17 -72q0 -20 -5.5 -40t-16 -37t-26.5 -31t-36 -22q51 -14 78.5 -50t27.5 -88q0 -46 -18 -80.5t-49 -58t-72 -35t-87 -11.5q-52 0 -94 14t-70.5 41t-42.5 66.5t-11 89.5zM309 0l596 1000 h82l-594 -1000h-84zM658 140v65l300 399h72v-397h94v-67h-94v-140h-80v140h-292zM742 207h208v279z" />
<glyph unicode="&#xd7;" horiz-adv-x="694" d="M20 66l271 286l-271 287l58 57l268 -286l270 286l58 -57l-272 -287l272 -286l-58 -56l-270 285l-268 -285z" />
<glyph unicode="&#xf7;" horiz-adv-x="839" d="M68 312v81h704v-81h-704zM338 74q0 18 6 33t17 25.5t26 17t33 6.5q17 0 31.5 -6.5t26 -17t18 -25.5t6.5 -33q0 -16 -6.5 -31t-17.5 -26t-25.5 -18t-30.5 -7q-18 0 -34 6.5t-27 17.5t-17 26t-6 32zM338 628q0 18 6 34t17 27t26 17t33 6q17 0 31.5 -6t26 -17.5t18 -27 t6.5 -33.5q0 -16 -6.5 -30.5t-17.5 -26t-25.5 -18t-30.5 -6.5q-18 0 -34 6.5t-27 17.5t-17 25.5t-6 31.5z" />
<glyph unicode="&#xe01;" horiz-adv-x="862" d="M35 600q12 48 39.5 94.5t72.5 83t109 58.5t152 22q72 0 127 -13.5t95 -37.5t67 -56.5t43 -72t23 -83t7 -89.5v-506h-102v524q0 30 -5 60.5t-16 58t-30 52t-48 42t-69 28.5t-92 11q-45 0 -81.5 -8t-65.5 -22t-50 -32t-36 -38t-23 -39t-12 -35q34 -20 49.5 -60t15.5 -96 v-446h-103v448q0 22 -2 44.5t-8.5 42.5t-20 36.5t-36.5 28.5z" />
<glyph unicode="&#xe02;" horiz-adv-x="702" d="M14 770v70h199l157 -762h2l158 762h111l-193 -840h-155l-170 770h-109z" />
<glyph unicode="&#xe03;" horiz-adv-x="770" d="M30 840h91q3 -18 11 -35t21 -30t30 -20t38 -7q44 0 71.5 25t33.5 67h94v-154q0 -20 -8 -39.5t-23 -39.5t-36 -41.5t-46 -45.5q-24 -24 -41 -45.5t-28 -43t-16.5 -45t-6.5 -52.5v-50q0 -52 13.5 -92t38.5 -68t59 -42t74 -14q39 0 71.5 9.5t55.5 33t36 63.5q13 38 13 98 v568h102v-584q0 -70 -21 -122.5t-58 -86.5t-88 -50.5t-111 -16.5t-112.5 18.5t-92 54t-62.5 86.5t-23 117v35q0 34 2 60.5t7 46.5t12 37t19 32t27 30t36 33t41.5 37t37 39t26.5 43t10 49v44q-4 -10 -13 -21.5t-24 -21t-38 -15.5t-55 -6q-22 0 -49 7t-51.5 25t-43 50 t-24.5 80z" />
<glyph unicode="&#xe04;" horiz-adv-x="882" d="M92 0v500q0 45 6 89t22 83.5t41.5 73.5t64.5 59t92.5 39t123.5 14t123 -14t91.5 -39t64 -59t41.5 -73.5t22 -84t6 -88.5v-500h-102v520q0 30 -5 60.5t-16 59t-30 53.5t-46 43t-64 29t-85 11t-85 -11t-64.5 -29t-46 -43t-30.5 -53.5t-17 -59t-5 -60.5v-200v-2 q24 52 56.5 84t70 50t79.5 25t84 7v-82q-74 0 -129 -24t-90.5 -67.5t-53 -105t-17.5 -137.5v-68h-102z" />
<glyph unicode="&#xe05;" horiz-adv-x="893" d="M92 0v532q0 58 10 111t36 95.5t72 71.5q46 30 116 42l120 -119l113 119q72 -10 118.5 -40t74 -73t38.5 -96t11 -111v-532h-103v532q0 29 -3 62t-15 63.5t-35 57.5t-61 45l-138 -134q-4 -4 -6 0l-137 134q-37 -16 -58.5 -43t-32.5 -58t-14.5 -64t-3.5 -63v-212v-2 q27 46 56.5 77t64 51t76 29t93.5 9v-82q-70 0 -124 -24t-91 -67.5t-56 -105t-19 -137.5v-68h-102z" />
<glyph unicode="&#xe06;" horiz-adv-x="856" d="M18 840h90q3 -18 11.5 -35t21 -30t30 -20t38.5 -7q43 0 71 25t34 67h94v-154q-2 -28 -10 -51t-22 -44t-33 -42t-44 -45q-16 -16 -29.5 -28t-24.5 -24t-19 -24t-13 -27t-7.5 -34t-2.5 -45q0 -49 18.5 -95.5t52.5 -82.5t83 -57t112 -21q49 0 85 14t60 40t36 64t12 84v572 h102v-556q0 -67 -14.5 -123t-47 -96.5t-84.5 -63.5t-128 -23q-44 0 -87 8.5t-81.5 27t-70.5 47.5q-33 29 -55 70v2q0 -34 -2 -66.5t-2 -66.5h-94v291q0 32 1 55.5t3 42.5t8 34t16.5 29t26.5 30q15 15 39 34q30 26 53 46t38 41.5t21 46t5 58.5v23q-6 -10 -17.5 -20 t-27.5 -17.5t-34 -11.5t-38 -4q-23 0 -50.5 7t-53.5 25t-45 50t-25 80z" />
<glyph unicode="&#xe07;" horiz-adv-x="618" d="M26 482h107l123 -359q11 -31 34.5 -47t49.5 -16q21 0 37 7t26.5 19t16.5 28t6 34v620h-125v72h225v-664q0 -54 -14 -91t-39 -61t-59 -34t-76 -10q-40 0 -71 10t-53 29.5t-38 47t-28 62.5z" />
<glyph unicode="&#xe08;" horiz-adv-x="741" d="M43 622q6 52 29.5 95.5t64.5 74t101 47.5t139 17q84 0 141.5 -23t92.5 -63t50 -92t13 -110q-1 -32 -9.5 -73t-22.5 -88t-32.5 -97.5t-40 -103t-44.5 -104.5t-46 -102h-135l-146 408h-108v71h186l138 -401q18 42 36 86t35 89t32 88t26 84t18 77t9 66q2 43 -8.5 80.5 t-34.5 65.5t-63.5 44t-97.5 16q-97 0 -150 -40q-52 -40 -60 -112h-113z" />
<glyph unicode="&#xe09;" horiz-adv-x="874" d="M76 624q8 46 31 88t65.5 73.5t105 50t148.5 18.5q72 0 127 -13.5t94 -37.5t65.5 -56.5t42 -72t21.5 -83t6 -89.5v-502h-94l-4 133q-24 -42 -58.5 -71.5t-75 -48.5t-85 -27t-90.5 -8q-83 0 -138 22.5t-87 63t-45 96.5t-13 124v162h102v-178q0 -46 14 -83t40 -64t63 -41 t85 -14q73 0 126.5 21t88.5 60t52 93t17 120v160q0 46 -11.5 91t-40 81t-78 58t-124.5 22q-64 0 -107 -14t-71 -36t-42 -48t-20 -50h-110z" />
<glyph unicode="&#xe0a;" horiz-adv-x="741" d="M43 756v65q14 6 33 11.5t37.5 10t34.5 7t26 2.5q80 0 120.5 -40t37.5 -116q-2 -14 -5 -25t-8.5 -22t-13.5 -22.5t-19.5 -26t-27 -34.5t-35.5 -46q-16 -23 -24.5 -40.5t-11.5 -34t-3 -33.5q-2 -18 -2 -42v-81q0 -52 15 -92.5t41 -68.5t61 -42t76 -14q40 0 74 10.5t59 35 t39 63.5t14 95v68q0 44 -5.5 75t-15.5 51.5t-26 32t-36 17t-44 7t-53 1.5h-27v78h27q54 2 92.5 19t62.5 48t35 73t11 94h102q-2 -27 -5 -55.5t-11 -55.5t-21 -52t-33 -45t-49 -36q-29 -14 -69 -22q40 -5 68 -19.5t46.5 -34t29 -43t16 -47t7 -46t1.5 -40.5v-84 q0 -70 -24 -122.5t-64 -86.5t-92 -50.5t-109 -16.5q-58 0 -111.5 18t-94.5 52.5t-66 86t-25 119.5v94q0 32 1.5 56t5 42t9.5 32.5t15 28t21 28.5q14 15 30 35q16 18 28 31t21 25t15 24t10 28q8 51 -14 74q-20 22 -70 22q-32 0 -58 -7t-49 -17z" />
<glyph unicode="&#xe0b;" horiz-adv-x="747" d="M12 840h90q3 -18 9.5 -35t16.5 -30t26 -20q14 -7 36 -7t38 6.5t27 18.5t18 29q7 18 9 38h95v-154q0 -20 -5.5 -39t-17.5 -38.5t-30 -40.5q-20 -22 -44 -48q-24 -24 -41 -45.5t-28 -43t-17 -45t-6 -52.5v-45q0 -52 15 -92.5t41 -68.5t61 -42t76 -14q40 0 74 10.5t59 35 t39.5 63.5t14.5 95v68q0 44 -6 75t-16 51.5t-25.5 32t-35.5 17t-44.5 7t-53.5 1.5v78q54 2 92.5 19t62.5 48t35 73t11 94h102q-2 -27 -5 -55.5t-11 -55.5t-21 -52t-33 -45t-49 -36q-29 -14 -69 -22q40 -5 68 -19.5t46.5 -34t29 -43t16 -47t7 -46t1.5 -40.5v-84 q0 -70 -24 -122.5t-64 -86.5t-92 -50.5t-109 -16.5q-38 0 -75 8t-70 23.5t-61 39t-48.5 54t-31.5 68.5t-11 83v31q0 34 2 59.5t7 46t13 36.5t19 31.5t27 31.5l34 34t38 39t31.5 38.5t21 42t7.5 48.5v44q-2 -6 -10 -16.5t-22.5 -21t-35 -18.5t-48.5 -8q-22 0 -47 7t-47.5 25 t-39.5 50t-22 80z" />
<glyph unicode="&#xe0c;" horiz-adv-x="1329" d="M35 600q8 32 23 63.5t36.5 60t50.5 53.5t67 43.5t84 29t102 10.5q68 0 119.5 -13.5t90 -37.5t64.5 -56.5t42 -72t23 -83t7 -89.5v-164q0 -58 14.5 -108t44 -87t72.5 -58t100 -21q42 0 72.5 15t49.5 42t28 64t9 81v568h103v-551q0 -63 -11.5 -119t-39 -98t-74 -66 t-116.5 -24q-39 0 -75.5 7t-68.5 25t-60 46.5t-52 70.5l-5 -131h-94v526q0 30 -4.5 60.5t-15.5 58t-29.5 52t-45.5 42t-63.5 28.5t-84.5 11q-62 1 -108 -15.5t-77.5 -43t-49 -58.5t-23.5 -61q20 -10 32.5 -26t20 -36.5t10 -44t2.5 -51.5v-366h94v-76h-197v444q0 22 -1 43 t-7.5 40t-20.5 37t-38 36z" />
<glyph unicode="&#xe0d;" horiz-adv-x="1329" d="M35 600q8 32 23 63.5t36.5 60t50.5 53.5t67 43.5t84 29t102 10.5q68 0 119.5 -13.5t90 -37.5t64.5 -56.5t42 -72t23 -83t7 -89.5v-164q0 -44 9 -81t28 -64t49.5 -42t72.5 -15q57 0 100 21t72.5 58t44 87t14.5 108v424h103v-631q0 -60 -5.5 -106t-14.5 -81t-21 -60.5 t-24 -43.5q-24 -36 -54 -59t-64 -37.5t-72 -20.5t-79 -6q-52 0 -100 12.5t-86.5 38.5t-66.5 64t-38 90h109q18 -68 64.5 -99.5t115.5 -31.5q44 0 79.5 10.5t61.5 28.5t44.5 43t30 53t16.5 59t5 62v78q-24 -42 -52 -71t-60 -46.5t-68 -25t-76 -7.5q-70 0 -116.5 24.5 t-74 66.5t-39 98t-11.5 118v166q0 30 -4.5 60.5t-15.5 58t-29.5 52t-45.5 42t-63.5 28.5t-84.5 11q-62 1 -108 -15.5t-77.5 -43t-49 -58.5t-23.5 -61q20 -10 32.5 -26t20 -36.5t10 -44t2.5 -51.5v-366h94v-76h-197v444q0 22 -1 43t-7.5 40t-20.5 37t-38 36z" />
<glyph unicode="&#xe0e;" horiz-adv-x="878" d="M30 0v76h89v372q0 22 -2 44.5t-9 42.5t-20.5 36.5t-36.5 28.5q12 48 39.5 94.5t72.5 83t109.5 58.5t151.5 22q72 0 127 -13.5t95 -37.5t67 -56.5t43.5 -72t23 -83t6.5 -89.5v-778h-112q-13 20 -34.5 36t-50 28t-62 19t-71.5 7t-75 -10t-68 -25t-55 -33t-35 -34v100 q10 8 32 21.5t53.5 26.5t69.5 22.5t78 9.5q42 0 76.5 -6.5t62.5 -17t50 -23.5t39 -27v702q0 30 -4.5 60.5t-16 58t-30.5 52t-48 42t-69 28.5t-92 11q-68 0 -116 -18t-80 -45t-50 -57q-16 -30 -22 -54q34 -20 49.5 -60t15.5 -96v-446h-191z" />
<glyph unicode="&#xe0f;" horiz-adv-x="878" d="M30 0v76h89v372q0 22 -2 44.5t-9 42.5t-20.5 36.5t-36.5 28.5q12 48 39.5 94.5t72.5 83t109.5 58.5t151.5 22q72 0 127 -13.5t95 -37.5t67 -56.5t43.5 -72t23 -83t6.5 -89.5v-778h-106q-9 21 -20 38.5t-25.5 31t-34.5 21t-47 7.5q-26 0 -44.5 -9t-31.5 -23t-20 -32 q-7 -16 -11 -34h-94q-6 18 -13.5 35.5t-20 32t-30.5 23.5t-42 9q-20 0 -35 -8.5t-26 -22.5t-18 -32q-7 -17 -9 -37h-90q4 42 18.5 74t37.5 54t53 34q31 12 65 12q23 0 45.5 -5t43 -17t38 -32t31.5 -48q13 30 31.5 50t39 31t42 16t40.5 5q42 0 73.5 -17t57.5 -53v692 q0 30 -4.5 60.5t-16 58t-30.5 52t-48 42t-69 28.5t-92 11q-68 0 -116 -18t-80 -45t-50 -57q-16 -30 -22 -54q34 -20 49.5 -60t15.5 -96v-446h-191z" />
<glyph unicode="&#xe10;" horiz-adv-x="751" d="M24 -264q0 39 12.5 69.5t33 52t48.5 33t60 11.5q16 0 34 -3.5t35 -12.5t32 -24.5t24 -41.5q9 26 25 42t34 25t36 12t30 3q16 -1 31.5 -5.5t30 -12.5t26.5 -20t20 -28v92h97v-192h-101q-8 19 -16 35.5t-20 29.5t-28.5 20t-39.5 7q-18 0 -32 -7t-24.5 -20t-16 -29.5 t-5.5 -35.5h-96q0 18 -4 35t-13 30t-23 21t-34 8q-18 0 -31 -9t-22 -23t-13 -30t-4 -32h-86zM43 622q6 52 29.5 95.5t64.5 74t101 47.5t139 17q34 0 64.5 -4t56.5 -12q28 2 49.5 10.5t37 21t25.5 28.5t12 34h113q-3 -18 -13 -37t-29 -37t-47 -33.5t-68 -25.5 q27 -20 45.5 -45.5t30 -55.5t16 -64t4.5 -68q-1 -32 -9.5 -73t-22.5 -88t-32.5 -97.5t-40 -103t-44.5 -104.5t-46 -102h-135l-146 408h-108v71h186l138 -401q18 42 36 86t35 89t32 88t26 84t18 77t9 66q2 43 -8.5 80.5t-34.5 65.5t-63.5 44t-97.5 16q-97 0 -150 -40 q-52 -40 -60 -112h-113z" />
<glyph unicode="&#xe11;" horiz-adv-x="862" d="M28 840h95q2 -18 9 -35t19 -30t28.5 -20t39.5 -7q21 0 39 6.5t31 18.5t21 29q10 18 12 38h94v-121q46 40 82 65.5t65 40.5t51 21t40 6q32 0 54 -10t36 -30t20 -51t6 -73v-688h-102v688v32q0 13 -2.5 21t-7.5 11.5t-15 3.5q-16 0 -39.5 -11t-51 -30t-58 -44t-62.5 -54 t-62 -61t-58 -62q-20 -24 -36 -42t-27 -34t-18.5 -31t-12 -33t-6 -40t-1.5 -52v-262h-103v254q0 31 1 55t3.5 43.5t8 36.5t15 34t24.5 35q14 18 36 42t40 42.5t32 35t24 31.5t16.5 33.5t10 41t3.5 51.5q-10 -18 -26 -28.5t-33.5 -16.5t-35.5 -8q-19 -2 -33 -2q-13 0 -28.5 3 t-33 10t-34.5 18.5t-31.5 29t-24.5 42.5t-14 57z" />
<glyph unicode="&#xe12;" horiz-adv-x="1380" d="M92 0v516q0 38 4.5 75t15 71.5t28 65t44 55.5t62.5 42.5t84 26.5l114 -119l109 119q72 -12 118.5 -45t73.5 -78t38 -100t11 -113v-172q0 -58 15 -108t44 -87t72.5 -58t100.5 -21q42 0 72 15t50 42t29 64t9 81v568h102v-551q0 -63 -11 -119t-39 -98t-74 -66 q-48 -24 -118 -24q-39 0 -74.5 7t-68 25t-61 46.5t-52.5 70.5l-4 -131h-94v532q0 39 -6 74t-20 63.5t-37 50.5t-55 36l-128 -130q-2 -2 1 -2t1 2l-141 130q-32 -15 -53.5 -37.5t-34.5 -50.5t-19 -62t-6 -74v-409l230 283h-92v71h206v-67l-333 -410h-113z" />
<glyph unicode="&#xe13;" horiz-adv-x="1329" d="M35 600q8 32 23 63.5t36.5 60t50.5 53.5t67 43.5t84 29t102 10.5q68 0 119.5 -13.5t90 -37.5t64.5 -56.5t42 -72t23 -83t7 -89.5v-236q0 -44 9 -81t28 -64t49.5 -42t72.5 -15q57 0 100 21t72.5 58t44 87t14.5 108v496h103v-840h-94l-5 131q-24 -42 -52 -70.5t-60 -46.5 t-68 -25t-76 -7q-70 0 -116.5 24t-74 66t-39 98t-11.5 119v237q0 30 -4.5 60.5t-15.5 58t-29.5 52t-45.5 42t-63.5 28.5t-84.5 11q-62 1 -108 -15.5t-77.5 -43t-49 -58.5t-23.5 -61q20 -10 32.5 -26t20 -36.5t10 -44t2.5 -51.5v-366h94v-76h-197v444q0 22 -1 43t-7.5 40 t-20.5 37t-38 36z" />
<glyph unicode="&#xe14;" horiz-adv-x="889" d="M92 0v498q0 48 7 93t23 84.5t42.5 73t66 57.5t92.5 37t121 13q69 0 122.5 -13t92.5 -37t65 -57.5t42.5 -73t23.5 -85.5q6 -44 6 -92v-498h-102v512q0 32 -4 64.5t-15.5 62t-30 54t-46.5 43t-66 28.5t-88 10t-88 -10t-66 -28.5t-46 -43t-29 -54t-16 -62t-5 -64.5v-389 l236 287h-96v67h206v-67l-337 -410h-111z" />
<glyph unicode="&#xe15;" horiz-adv-x="903" d="M92 0v516q0 38 4.5 75t15 71.5t28 65t44 55.5t62.5 42.5t84 26.5l122 -119l118 119q72 -12 118 -45t73.5 -78t38.5 -100t11 -113v-516h-103v532q0 39 -6 74t-20 63.5t-36.5 50.5t-55.5 36l-136 -130q-4 -4 -6 0l-141 130q-32 -15 -53.5 -37.5t-34.5 -50.5t-19 -62t-6 -74 v-409l240 287h-94v67h207v-67l-342 -410h-113z" />
<glyph unicode="&#xe16;" horiz-adv-x="860" d="M41 600q12 48 39.5 94.5t72 83t108 58.5t149.5 22q71 0 125.5 -13.5t94 -37.5t66 -56.5t42.5 -72t23 -83t7 -89.5v-506h-102v524q0 30 -5 60.5t-16 58t-30 52t-47 42t-68 28.5q-38 11 -90 11q-66 0 -114 -18t-79.5 -45t-49 -57t-21.5 -54q34 -20 49.5 -60t15.5 -96v-372 h94v-74h-197v448q0 22 -2 44.5t-8.5 42.5t-20 36.5t-36.5 28.5z" />
<glyph unicode="&#xe17;" horiz-adv-x="870" d="M92 0v840h102v-138q30 48 64 78.5t72 47t79 22.5t87 6q76 0 129.5 -22t87.5 -62t49.5 -96.5t15.5 -124.5v-551h-102v551q0 106 -49 161.5t-150 55.5q-73 0 -126 -23t-88 -62t-52 -93t-17 -115v-475h-102z" />
<glyph unicode="&#xe18;" horiz-adv-x="792" d="M80 236v155h102v-155q0 -49 19.5 -82.5t50 -53.5t69.5 -28t79 -8q24 0 49 3t49 10t45.5 19.5t38 31.5t25.5 45.5t9 62.5q0 28 -2 48t-10.5 36t-25 29.5t-44.5 26.5t-70 27.5t-102 32.5q-61 18 -113 38.5t-90 47t-59.5 60.5t-19.5 80q0 36 13 63.5t34 49t49 37t60 25.5 t66 14.5t66 4.5q68 0 126 -12.5t102 -40t70 -70.5t30 -105h-108q-4 42 -21 70t-44 46t-63 25.5t-79 8.5q-40 1 -75.5 -6.5t-62 -22t-42 -36t-15.5 -47.5q0 -23 13 -42.5t33.5 -35.5t46.5 -28t52 -22t50 -17.5t41 -12.5q56 -16 100 -30.5t78 -30t57.5 -33.5t38.5 -43t22 -58 t7 -77q0 -68 -26.5 -115.5t-71.5 -77.5t-104 -43.5t-123 -13.5q-66 0 -124 14t-101.5 44t-69 77.5t-25.5 114.5z" />
<glyph unicode="&#xe19;" horiz-adv-x="870" d="M92 289v551h102v-551q0 -106 49 -161.5t150 -55.5q73 0 126.5 22.5t88 62t51.5 93.5q17 52 17 114v476h102v-840h-102v137q-30 -48 -64 -78.5t-71.5 -47t-79 -22t-86.5 -5.5q-76 0 -129.5 22t-87.5 62t-50 96.5t-16 124.5z" />
<glyph unicode="&#xe1a;" horiz-adv-x="870" d="M92 340v500h102v-518q0 -30 5 -61.5t15.5 -60t28.5 -54t44.5 -44.5t63.5 -29.5t85 -10.5t84 10.5t63 29.5t45 44.5t28.5 54t15 60t4.5 61.5v518h102v-500q0 -46 -6 -90t-21 -84t-40 -74t-63 -58t-90 -38t-122 -14t-123 14t-91.5 38t-63.5 58t-39.5 74t-20.5 84t-6 90z " />
<glyph unicode="&#xe1b;" horiz-adv-x="874" d="M92 340v500h102v-518q0 -30 5 -61.5t16 -60t29 -54t45.5 -44.5t64 -29.5t84.5 -10.5t84 10.5t63 29.5t45 44.5t29 54t16 60t5 61.5v886h102v-868q0 -46 -6 -90t-21 -84t-40 -74t-63.5 -58t-91 -38t-122.5 -14q-71 0 -123.5 14t-91.5 38t-64 58t-40 74t-21 84t-6 90z" />
<glyph unicode="&#xe1c;" horiz-adv-x="930" d="M92 228v612h217v-72h-115v-524q0 -52 7.5 -87t21 -56t34 -29t46.5 -8q34 0 55.5 16t33.5 44t17 68t5 86v130h102v-130q0 -47 5 -86.5t18.5 -67.5t36 -44t57.5 -16q26 0 44.5 8t31.5 29t19.5 56t6.5 87v596h103v-612q0 -62 -14 -108t-38 -76t-58 -44t-72 -14 q-26 0 -53 3.5t-52 16.5t-48 38.5t-40 67.5q-13 -42 -33 -67t-44 -38t-51 -17t-55 -4q-40 0 -75 14t-60 44t-39 76t-14 108z" />
<glyph unicode="&#xe1d;" horiz-adv-x="930" d="M92 228v612h217v-72h-115v-524q0 -52 7.5 -87t21 -56t34 -29t46.5 -8q34 0 55.5 16t33.5 44t17 68t5 86v130h102v-130q0 -47 5 -86.5t18.5 -67.5t36 -44t57.5 -16q26 0 44.5 8t31.5 29t19.5 56t6.5 87v964h103v-980q0 -62 -14 -108t-38 -76t-58 -44t-72 -14 q-26 0 -53 3.5t-52 16.5t-48 38.5t-40 67.5q-13 -42 -33 -67t-44 -38t-51 -17t-55 -4q-40 0 -75 14t-60 44t-39 76t-14 108z" />
<glyph unicode="&#xe1e;" horiz-adv-x="1048" d="M41 840h111l139 -724l168 724h125l164 -724l149 724h111l-195 -840h-125l-164 721l-170 -721h-124z" />
<glyph unicode="&#xe1f;" horiz-adv-x="1048" d="M41 840h111l139 -724l168 724h125l164 -724l233 1092h111l-279 -1208h-125l-164 721l-170 -721h-124z" />
<glyph unicode="&#xe20;" horiz-adv-x="878" d="M30 0v76h89v372q0 22 -2 44.5t-9 42.5t-20.5 36.5t-36.5 28.5q12 48 39.5 94.5t72.5 83t109.5 58.5t151.5 22q72 0 127 -13.5t95 -37.5t67 -56.5t43.5 -72t23 -83t6.5 -89.5v-506h-102v524q0 30 -4.5 60.5t-16 58t-30.5 52t-48 42t-69 28.5t-92 11q-68 0 -116 -18 t-80 -45t-50 -57q-16 -30 -22 -54q34 -20 49.5 -60t15.5 -96v-446h-191z" />
<glyph unicode="&#xe21;" horiz-adv-x="870" d="M92 0v840h102v-476q0 -62 17 -115t52 -92.5t88 -62t126 -22.5q102 0 150.5 55.5t48.5 161.5v551h102v-551q0 -68 -15.5 -124.5t-49.5 -96.5t-87.5 -62t-129.5 -22q-45 0 -86.5 5.5t-79.5 22t-72 46.5t-64 79v-137h-102z" />
<glyph unicode="&#xe22;" horiz-adv-x="837" d="M68 254q0 34 6 65.5t21 58.5t42 48.5t70 34.5q-49 16 -77 39.5t-41 49.5t-16 53t-3 51q0 38 9 66t25.5 48.5t38 34t45.5 21.5t49 12t47 4h95v-78h-57q-12 0 -27 -0.5t-31 -4t-32 -10.5t-28 -19.5t-20 -32t-8 -48.5q0 -37 11.5 -63t32 -44t48.5 -27t62 -11h49v-80h-49 q-34 -2 -63 -12.5t-49 -31t-31 -50t-11 -68.5q0 -50 19 -88t51.5 -62t75 -36t88.5 -12q52 0 95 13t74 43.5t49 79.5q17 50 17 120v522h101v-551q0 -76 -26.5 -133.5t-72 -96t-106.5 -58t-131 -19.5q-44 0 -86 7t-80 21.5t-70.5 37t-56 52.5t-36.5 68.5t-13 85.5z" />
<glyph unicode="&#xe23;" horiz-adv-x="706" d="M39 238h109q8 -83 60 -128q50 -44 152 -44q30 0 64 7t62 25t46.5 49t18.5 79q0 30 -12.5 52t-37.5 41.5t-64 37.5q-39 19 -93 41q-38 16 -73.5 30.5t-66.5 30t-56.5 33.5t-43.5 40t-28 49t-10 62q0 38 10.5 68t29.5 53.5t45.5 41t56.5 28.5t62 16.5t64 5.5 q64 0 115.5 -13t89 -40t61.5 -71t33 -104h-103q-14 80 -62 117t-122 37q-30 0 -61 -7t-56 -23.5t-41 -43t-16 -63.5q0 -34 15 -57.5t43 -41.5t67.5 -34t89.5 -35q78 -29 130.5 -56t83.5 -56t44 -63q13 -32 13 -74q0 -64 -24 -110t-65 -75t-97 -42t-120 -13q-62 0 -117.5 15 t-98 46t-68.5 78t-29 111z" />
<glyph unicode="&#xe24;" horiz-adv-x="854" d="M35 600q12 48 39.5 94.5t72 83t108 58.5t149.5 22q71 0 125 -13.5t93.5 -37.5t66.5 -56.5t43 -72t23 -83t7 -89.5v-778h-102v796q0 30 -5 60.5t-16 58t-30 52t-47 42t-68 28.5q-38 11 -90 11q-66 0 -114 -18t-79.5 -45t-49 -57t-21.5 -54q34 -20 49.5 -60t15.5 -96v-372 h94v-74h-197v448q0 22 -2 44.5t-8.5 42.5t-20 36.5t-36.5 28.5z" />
<glyph unicode="&#xe25;" horiz-adv-x="833" d="M49 205q0 45 11.5 79.5t31.5 60.5t47 44.5t58.5 30.5t66 20t68.5 12q79 11 136.5 20.5t95.5 25.5t56.5 41t18.5 67q0 38 -8.5 66t-23.5 47t-35 31t-44 18t-50 8t-52 2q-50 0 -91.5 -8t-72.5 -27t-50 -53q-20 -33 -24 -84h-104q6 70 36 118t78 77.5t109 42t129 12.5 q36 0 73 -4t71 -15t63.5 -28t51 -43.5t34.5 -62t13 -83.5v-620h-103v459q-13 -16 -37.5 -27t-54 -19.5t-59.5 -14t-56 -9.5q-28 -4 -60 -8.5t-62 -11.5t-58 -18t-49 -29t-33 -43.5t-12 -61.5q0 -47 17 -78t45 -49.5t64 -26t72 -7.5q14 0 33 1t33 3v-68q-26 -6 -49 -9t-51 -3 q-56 0 -105.5 12t-87 39t-59 69.5t-21.5 104.5z" />
<glyph unicode="&#xe26;" horiz-adv-x="878" d="M30 0v76h89v372q0 22 -2 44.5t-9 42.5t-20.5 36.5t-36.5 28.5q12 48 39.5 94.5t72.5 83t109.5 58.5t151.5 22q72 0 127 -13.5t95 -37.5t67 -56.5t43.5 -72t23 -83t6.5 -89.5v-778h-102v796q0 30 -4.5 60.5t-16 58t-30.5 52t-48 42t-69 28.5t-92 11q-68 0 -116 -18 t-80 -45t-50 -57q-16 -30 -22 -54q34 -20 49.5 -60t15.5 -96v-446h-191z" />
<glyph unicode="&#xe27;" horiz-adv-x="731" d="M41 262h107q7 -50 25.5 -88t45.5 -63t60 -38t69 -13q51 0 92.5 21t70.5 66t45 114t16 163t-16 161t-45 110t-70 63t-93 20q-38 0 -71 -13t-60 -38t-45 -62t-24 -87h-107q6 62 30.5 113.5t64.5 88.5t94 57.5t118 20.5q84 0 147 -30t104 -86.5t61 -137t20 -180.5 t-20.5 -181.5t-62 -139.5t-103.5 -89.5t-146 -31.5q-64 0 -118 20t-94 57t-64.5 88.5t-30.5 114.5z" />
<glyph unicode="&#xe28;" horiz-adv-x="882" d="M92 0v500q0 45 6 89t22 83.5t41.5 73.5t64.5 59t92.5 39t123.5 14q37 0 69.5 -4t62.5 -12q26 0 47 8t36.5 21t26 29.5t14.5 33.5h113q-3 -18 -13 -37t-28 -37t-46 -32q-26 -15 -64 -25q38 -26 63 -59.5t40 -73t21 -83t6 -87.5v-500h-102v520q0 30 -5 60.5t-16 59 t-30 53.5t-46 43t-64 29t-85 11t-85 -11t-64.5 -29t-46 -43t-30.5 -53.5t-17 -59t-5 -60.5v-202q24 52 56.5 84t70 50t79.5 25t84 7v-82q-74 0 -129 -24t-90.5 -67.5t-53 -105t-17.5 -137.5v-68h-102z" />
<glyph unicode="&#xe29;" horiz-adv-x="878" d="M92 340v500h100v-518q0 -30 4 -61t14.5 -60t28 -54t45.5 -43.5t66 -29.5q38 -10 90 -10q51 0 89.5 10.5t65.5 29t44 43.5t27 54t14 59q4 32 4 62v110h-258v138h100v-66h158v336h102v-336h80v-72h-80v-92q0 -45 -5.5 -89t-20 -83.5t-39.5 -73.5t-63.5 -58.5t-92 -38 t-125.5 -13.5t-126 13.5t-92.5 38t-63.5 58.5t-39.5 73.5t-20.5 83.5t-6 89z" />
<glyph unicode="&#xe2a;" horiz-adv-x="833" d="M49 205q0 45 11.5 79.5t31.5 60.5t47 44.5t58.5 30.5t66 20t68.5 12q79 11 136.5 20.5t95.5 25.5t56.5 41t18.5 67q0 38 -8.5 66t-23.5 47t-35 31t-44 18t-50 8t-52 2q-50 0 -91.5 -8t-72.5 -27t-50 -53q-20 -33 -24 -84h-104q6 70 36 118t78 77.5t109 42t129 12.5 q32 0 64 -3t63 -11q26 0 47.5 8t37 21t26 29.5t14.5 33.5h113q-3 -18 -13 -37t-28 -37t-45 -32.5t-63 -24.5q20 -13 36 -31t28 -40.5t19 -50t7 -61.5v-620h-103v459q-13 -16 -37.5 -27t-54 -19.5t-59.5 -14t-56 -9.5q-28 -4 -60 -8.5t-62 -11.5t-58 -18t-49 -29t-33 -43.5 t-12 -61.5q0 -47 17 -78t45 -49.5t64 -26t72 -7.5q14 0 33 1t33 3v-68q-26 -6 -49 -9t-51 -3q-56 0 -105.5 12t-87 39t-59 69.5t-21.5 104.5z" />
<glyph unicode="&#xe2b;" horiz-adv-x="846" d="M92 0v840h102v-375l432 375h142l-192 -160q58 -18 93 -48t54 -68.5t25 -86t6 -100.5v-377h-102v396q0 40 -7 77t-24 67t-46 50t-73 26l-308 -270v-346h-102z" />
<glyph unicode="&#xe2c;" horiz-adv-x="1038" d="M41 840h111l139 -682l193 569h84l178 -569l98 407q6 24 11 48.5t6 48t-2.5 45t-16 38.5t-35.5 29t-59 16v54q40 3 72 11.5t56 24.5t40 41t22 60h125q-8 -36 -25.5 -66t-42.5 -52.5t-56 -36.5t-63 -17q34 -13 53 -38t26.5 -55t5 -62.5t-10.5 -61.5l-160 -592h-84l-182 578 l-200 -578h-84z" />
<glyph unicode="&#xe2d;" horiz-adv-x="831" d="M56 422v28h337v-71h-233q0 -72 19 -130.5t52.5 -100.5t80 -65t102.5 -23q59 0 106.5 24t80.5 70.5t51 114t18 153.5q0 354 -258 354q-44 0 -84 -12t-72.5 -34.5t-55 -54t-32.5 -69.5h-104q16 56 45 102t72 80t101 53t130 19q100 0 169 -33t112 -91.5t62 -139t19 -174.5 q0 -59 -8.5 -114.5t-27 -104.5t-47 -90t-69 -71t-92.5 -46t-116 -16q-66 0 -118 16t-92 45.5t-68 70t-46 90t-26 105t-8 115.5z" />
<glyph unicode="&#xe2e;" horiz-adv-x="844" d="M56 422v28h337v-71h-233q0 -72 19 -130.5t52.5 -100.5t80 -65t102.5 -23q59 0 106.5 24t80.5 70.5t51 114t18 153.5q0 354 -258 354q-44 0 -84 -12t-72.5 -34.5t-55 -54t-32.5 -69.5h-104q16 56 45 102t72 80t101 53t130 19q39 0 72 -6q34 -4 65 -14q24 2 43.5 10.5 t32.5 21t22 28t13 32.5h116q-4 -18 -13 -37t-26.5 -36t-44 -33t-64.5 -28q38 -28 66 -67t46 -87.5t26 -104t8 -117.5q0 -59 -8.5 -114.5t-27 -104.5t-47 -90t-69 -71t-92.5 -46t-116 -16q-66 0 -118 16t-92 45.5t-68 70t-46 90t-26 105t-8 115.5z" />
<glyph unicode="&#xe2f;" horiz-adv-x="837" d="M56 614q0 42 11 75t30 58t45 43t55 29t60 16t61 5h100v-78h-100q-80 0 -118 -36t-38 -114q0 -34 9 -67.5t33 -60t65.5 -42.5t105.5 -16q66 0 116 13t83.5 39t51 68t17.5 99v195h103v-840h-103v465q-23 -33 -53 -55.5t-64.5 -36t-71 -19.5t-71.5 -6q-82 0 -143 19t-102 54 t-61.5 83.5t-20.5 109.5z" />
<glyph unicode="&#xe30;" horiz-adv-x="454" d="M80 148v132h94v-61h213v-71h-307zM80 588v135h94v-61h213v-74h-307z" />
<glyph unicode="&#xe31;" d="M-506 994v146h94v-73h428v-73h-522z" />
<glyph unicode="&#xe32;" horiz-adv-x="696" d="M30 622q2 58 28 102t66.5 73t92 43t105.5 14q60 0 112 -16t90 -50t59 -85t21 -121v-582h-102v553q0 58 -12 100.5t-35 69.5t-56 40t-77 13q-38 0 -69 -10t-54.5 -29t-38 -48t-18.5 -67h-112z" />
<glyph unicode="&#xe33;" horiz-adv-x="696" d="M-283 1120q0 28 10 53t27.5 42.5t41 28t50.5 10.5q28 0 52.5 -10.5t42 -28t27.5 -41.5q11 -26 11 -54q0 -27 -10.5 -50.5t-28 -41t-42 -27.5t-52.5 -10q-27 0 -50.5 10t-41 27.5t-27.5 41t-10 50.5zM-214 1120q0 -12 5 -23t13 -19t19 -12.5t23 -4.5q14 0 25.5 4.5 t20 12.5t13.5 19t5 23q0 14 -5 26t-13.5 20t-20 13t-25.5 5q-12 0 -23 -5t-19 -13t-13 -20t-5 -26zM30 622q2 58 28 102t66.5 73t92 43t105.5 14q60 0 112 -16t90 -50t59 -85t21 -121v-582h-102v553q0 58 -12 100.5t-35 69.5t-56 40t-77 13q-38 0 -69 -10t-54.5 -29t-38 -48 t-18.5 -67h-112z" />
<glyph unicode="&#xe34;" d="M-772 994l37 73h643v-73h-680z" />
<glyph unicode="&#xe35;" d="M-772 994l37 73h549v131h94v-204h-680z" />
<glyph unicode="&#xe36;" d="M-782 994l36 73h412q-6 11 -10 27q-4 14 -4 30q0 28 10 52t28 42t42 29t51 11q28 0 52.5 -11t42.5 -29t28 -42t10 -52t-10 -51.5t-28 -41t-42 -27.5t-53 -10h-565zM-280 1124q0 -13 5 -24.5t13 -20t20 -13.5t25 -5t24.5 5t20 13.5t13.5 20.5t5 24q0 13 -5 24.5 t-13.5 20.5t-20 14t-24.5 5t-25 -5t-20 -14t-13 -20.5t-5 -24.5z" />
<glyph unicode="&#xe37;" d="M-772 994l37 73h335v131h93v-131h123v131h92v-204h-680z" />
<glyph unicode="&#xe38;" d="M-262 -108h170v-275h-96v207h-74v68z" />
<glyph unicode="&#xe39;" d="M-582 -108h174v-86q0 -62 27 -93t84 -31q56 0 81.5 31t25.5 93v86h98v-86q0 -38 -11 -73t-35 -60.5t-63 -40.5t-96 -15q-56 0 -95.5 13t-64.5 39t-36 64.5t-11 90.5h-78v68z" />
<glyph unicode="&#xe3a;" d="M-246 -180q0 17 7 32t18 26.5t26.5 18.5t32.5 7t32 -7t26 -18.5t17.5 -26.5t6.5 -32t-6.5 -32t-17.5 -26t-26 -17.5t-32 -6.5t-32.5 6.5t-26.5 17.5t-18 26t-7 32z" />
<glyph unicode="&#xe3e;" />
<glyph unicode="&#xe3f;" horiz-adv-x="952" d="M100 0v1000h293v86h93v-86h32q42 0 83 -5.5t77 -17t66.5 -30.5t53 -46.5t34.5 -64.5q12 -36 12 -84q0 -38 -11 -73t-32 -64t-50 -52t-65 -35q44 -9 80 -30.5t61 -53t39 -72t14 -86.5q0 -24 -4 -55t-16.5 -62.5t-36.5 -62t-64.5 -54t-99.5 -38t-141 -14.5h-32v-94h-93v94 h-293zM205 90h188v385h-188v-385zM205 565h188v345h-188v-345zM486 90h32q52 -1 99 8.5t83 32t57 61t21 97.5q0 94 -68 140t-192 46h-32v-385zM486 565h32q57 0 98.5 12.5t69 34.5t41 52t13.5 65q0 181 -222 181h-32v-345z" />
<glyph unicode="&#xe40;" horiz-adv-x="342" d="M121 0v840h100v-840h-100z" />
<glyph unicode="&#xe41;" horiz-adv-x="538" d="M92 0v840h100v-840h-100zM346 0v840h100v-840h-100z" />
<glyph unicode="&#xe42;" horiz-adv-x="387" d="M18 1124l21 74h377l38 -72h-312q26 -11 45 -28t32 -38.5t20 -44.5t7 -47v-896h92v-72h-194v964q0 36 -10 64.5t-26.5 48t-39.5 31.5t-50 16z" />
<glyph unicode="&#xe43;" horiz-adv-x="387" d="M-35 1030q2 53 20.5 90.5t48 61t67 34.5t79.5 11q41 0 76 -8t61 -25.5t40.5 -45.5t14.5 -68q0 -16 -4 -28t-12 -24.5t-20 -26.5q-12 -15 -27 -33q-26 -32 -39.5 -54t-18.5 -42t-5 -42v-54v-704h92v-72h-194v776q0 33 4.5 60.5t13.5 50.5t23 43.5t34 40.5q12 14 23.5 26.5 t20.5 25.5t15 27t6 30q0 14 -4 28.5t-15 26t-31.5 19t-53.5 7.5q-28 0 -49 -9.5t-36 -26.5t-24 -41.5t-11 -53.5h-95z" />
<glyph unicode="&#xe44;" horiz-adv-x="387" d="M-68 1126l40 72h376l22 -74q-26 -4 -48.5 -15t-39 -30t-26.5 -46t-10 -62v-899h90v-72h-192v975q0 43 26 83t76 68h-314z" />
<glyph unicode="&#xe45;" horiz-adv-x="676" d="M20 622q2 58 28 102t66.5 73t92 43t105.5 14q60 0 112 -16t89.5 -50t59 -85t21.5 -121v-854h-102v825q0 58 -12 100.5t-35 69.5t-57 40q-32 13 -76 13q-76 0 -124 -39t-57 -115h-111z" />
<glyph unicode="&#xe46;" horiz-adv-x="782" d="M51 540q-3 56 5.5 106.5t34 92t69.5 70.5t112 41l111 -104l101 104q50 -4 86 -19.5t60 -38.5t38 -53t21 -64.5t9 -72.5t2 -76v-798h-102v817q0 18 -0.5 40t-4 44.5t-9.5 43.5t-17 38t-29 29t-42 16l-109 -107q-2 -2 -5.5 -1.5t-4.5 1.5l-115 109q-34 -14 -56 -34.5 t-34.5 -47t-17 -57.5t-2.5 -66v2q0 -27 9 -53t25.5 -46.5t40 -33t53.5 -12.5h66v-78h-66q-96 0 -155.5 52t-73.5 156z" />
<glyph unicode="&#xe47;" d="M-696 1147q0 44 19 74.5t49 50.5t69 29t77 9h447v-73h-430q-38 0 -63.5 -8t-40.5 -20.5t-21 -29t-6 -32.5q0 -14 4.5 -28.5t15 -25.5t27.5 -18.5t43 -7.5q16 0 32 5.5t28.5 16t21 25t8.5 33.5h68q0 -17 7 -31.5t18 -25t26 -17t35 -6.5t36 7.5t26.5 18.5t16 25.5t3.5 28.5 h90q4 -34 -5 -63.5t-29 -51t-51 -33.5t-71 -12q-28 0 -51.5 8t-41.5 20.5t-29.5 29t-14.5 32.5q-3 -16 -15 -32.5t-31 -29.5t-44 -21t-53 -7q-43 2 -75.5 15.5t-53.5 35.5t-31 50t-10 59z" />
<glyph unicode="&#xe48;" d="M-186 1306v214h94v-214h-94z" />
<glyph unicode="&#xe49;" d="M-456 1436v67h153v-125q58 0 97 11.5t64.5 29t39 40t20.5 44.5h100q-2 -18 -11.5 -39.5t-26 -43.5t-41.5 -42t-57.5 -36t-74 -26t-91.5 -10h-101v130h-71z" />
<glyph unicode="&#xe4a;" d="M-475 1306q-4 42 5.5 74t26.5 53.5t39 32t44 10.5t39 -5.5t30 -16t21 -24t12 -29.5q3 16 11.5 29.5t21.5 24t29 16t34 5.5q20 0 38 -6t32 -18t23 -32t13 -48q16 2 33 12t30.5 27t22 40t7.5 52h94q0 -42 -16.5 -77.5t-42.5 -61.5t-57 -42t-58 -16h-78q-2 17 -4.5 34 t-8 30.5t-15 22t-23.5 8.5q-13 0 -22.5 -8.5t-15.5 -21.5t-8.5 -30t-2.5 -35h-74q0 18 -3 35.5t-9.5 31t-15.5 21t-21 7.5q-14 0 -24 -8.5t-15.5 -22t-7 -30t-0.5 -34.5h-84z" />
<glyph unicode="&#xe4b;" d="M-316 1417v68h126v109h98v-109h129v-68h-129v-111h-98v111h-126z" />
<glyph unicode="&#xe4c;" d="M-284 1214q6 48 26 83t53 59t79 37q48 13 106 16v-65q-71 -4 -114.5 -37t-51.5 -93h-98z" />
<glyph unicode="&#xe4d;" d="M-283 1120q0 28 10 53t27.5 42.5t41 28t50.5 10.5q28 0 52.5 -10.5t42 -28t27.5 -41.5q11 -26 11 -54q0 -27 -10.5 -50.5t-28 -41t-42 -27.5t-52.5 -10q-27 0 -50.5 10t-41 27.5t-27.5 41t-10 50.5zM-214 1120q0 -12 5 -23t13 -19t19 -12.5t23 -4.5q14 0 25.5 4.5 t20 12.5t13.5 19t5 23q0 14 -5 26t-13.5 20t-20 13t-25.5 5q-12 0 -23 -5t-19 -13t-13 -20t-5 -26z" />
<glyph unicode="&#xe4e;" d="M-307 994q0 34 7.5 63t24.5 52t45 40t68 27q4 28 17 51t36 40t55 28t74 15v-67q-31 -2 -51.5 -9.5t-33.5 -22.5t-19 -37q-6 -24 -6 -54v-2h-10q-36 0 -57.5 -9t-34 -25.5t-17.5 -39.5q-5 -22 -6 -50h-92z" />
<glyph unicode="&#xe4f;" horiz-adv-x="1007" d="M66 420q0 60 15.5 116t44 105t68.5 89t89 68t105 44t116 16t116 -16t105 -44t89 -68t68 -89t44 -105t16 -116t-16 -116t-44 -105t-68 -89t-89 -68.5t-105 -44t-116 -15.5t-116 15.5t-105 44t-89 68.5t-68.5 89t-44 105t-15.5 116zM160 420q0 -48 12 -92t34.5 -82 t54 -69.5t69.5 -54t82 -34.5t92 -12t92 12t82 34.5t69.5 54t54 69.5t34.5 82t12 92t-12 92t-34.5 82t-54 69.5t-69.5 54t-82 34.5t-92 12t-92 -12t-82 -34.5t-69.5 -54t-54 -69.5t-34.5 -82t-12 -92zM258 420q0 50 19.5 95t53 78t78 53t95.5 20q50 0 95 -20t78 -53t53 -78 t20 -95q0 -51 -20 -95.5t-53 -78t-78 -53t-95 -19.5q-51 0 -95.5 19.5t-78 53t-53 78t-19.5 95.5zM344 420q0 -33 12.5 -62.5t34 -51t51 -34t62.5 -12.5t62 12.5t50.5 34t34.5 51t13 62.5t-13 62t-34.5 50.5t-50.5 34.5t-62 13t-62.5 -13t-51 -34.5t-34 -50.5t-12.5 -62z " />
<glyph unicode="&#xe50;" horiz-adv-x="887" d="M62 389q0 79 26 144t75 111t120 71t161 25q89 0 160 -25t120 -71t75.5 -111t26.5 -144q0 -77 -14 -136.5t-39 -104.5t-60 -76t-77 -50.5t-91 -27.5t-101 -8q-53 0 -101.5 8.5t-91 28t-77.5 50.5t-60 76t-38.5 104.5t-13.5 135.5zM158 358q0 -66 20.5 -120t58 -93 t90.5 -61t117 -22t117 22t90 61t57 93q21 54 21 120q0 83 -23.5 141.5t-62.5 94.5t-90 53t-109 17q-57 0 -108.5 -17t-91.5 -53t-63 -94.5t-23 -141.5z" />
<glyph unicode="&#xe51;" horiz-adv-x="915" d="M51 72l68 74q32 -21 63.5 -36.5t66.5 -25t74 -14t85 -4.5q74 0 134 20t103 60.5t66.5 101t23.5 141.5q0 63 -15.5 114t-49 86.5t-85.5 55t-124 19.5q-58 0 -105.5 -14.5t-81 -39t-51.5 -56.5t-18 -68q0 -32 11.5 -64t37.5 -55t68.5 -35t105.5 -6v-60q-22 -4 -38 -5 t-34 -1q-54 0 -102 15t-83.5 43t-56 67t-20.5 88q0 48 14.5 86.5t40 68.5t60 51.5t75 35t84.5 20.5t88 7q54 0 104 -8.5t93 -26t79 -45.5t61 -67t39 -90t14 -114q0 -90 -29 -164.5t-84 -127.5t-136 -82t-185 -29q-34 0 -79 1t-93 9t-96.5 25t-92.5 49z" />
<glyph unicode="&#xe52;" horiz-adv-x="1026" d="M20 768l17 80q34 -2 61.5 -16t47.5 -40t31 -63t11 -86v-334q0 -52 22 -96.5t66 -77t111 -51t155 -18.5q84 0 144 18t97 48t54 68t17 80v226q0 34 -9.5 60t-26 44t-39 30t-48.5 18l-109 -103l-108 92q-19 0 -38.5 -8.5t-35.5 -24.5t-26 -41t-10 -59v-68q0 -32 1 -62 t9.5 -53.5t28 -38t55.5 -14.5h32v-65h-46q-42 0 -72 11.5t-50 30.5t-31 43.5t-17 50t-8 49.5t-3 44v58q0 43 15.5 81.5t44.5 70t69.5 53t89.5 30.5l98 -83l92 86q52 -4 96 -22t76 -46t50 -65t18 -81v-217q0 -56 -13 -101.5t-37.5 -81t-58.5 -62t-74.5 -43.5t-87.5 -25 t-95 -8h-76q-100 0 -178.5 24t-132 68.5t-81.5 107t-28 138.5v290q0 36 -3.5 64t-11.5 46.5t-21.5 29t-33.5 14.5z" />
<glyph unicode="&#xe53;" horiz-adv-x="936" d="M76 328v63q0 84 18 145.5t53 103.5t84.5 66t112.5 32l115 -105l125 107q67 -6 115.5 -30t81 -60.5t48 -83t15.5 -97.5v-469h-100v469q0 37 -11.5 69.5t-31.5 56.5t-47.5 38t-59.5 14l-138 -109l-126 109q-14 0 -31 -5.5t-34 -17.5t-33 -31t-28.5 -47t-20 -66t-7.5 -87 v-63q0 -30 0.5 -60.5t4 -59t11.5 -53.5t22 -43.5t37 -29t56 -10.5h33t47 4v-78q-12 -2 -28.5 -4t-33.5 -3t-34 -1t-29 2q-46 6 -78 25t-53 46t-32 60.5t-16 68.5t-6 69.5t-1 64.5z" />
<glyph unicode="&#xe54;" horiz-adv-x="927" d="M76 316v88q0 83 27 143.5t77 100.5t121 59.5t160 19.5h149q38 0 64 8.5t42 24.5t23 38t9 50h104q-1 -38 -11.5 -74.5t-36.5 -64.5t-72 -45t-116 -17h-172q-62 0 -111 -14.5t-84 -42.5t-54 -69t-19 -93v-106q0 -52 14 -97t44 -77.5t77 -51t111 -18.5h98q-22 12 -41 29 t-33 38.5t-22 47.5t-8 57q0 10 1 24.5t6.5 31t17 33.5t32.5 31t52 23t77 11v-76q-38 -2 -57 -12.5t-27.5 -25t-9 -29.5t-0.5 -25q0 -23 8 -43.5t21 -38.5t29 -32t32 -24t31 -15t27 -5h196v-78h-450q-64 0 -114 14t-86 37.5t-60 55t-39 66.5t-21 72t-6 71z" />
<glyph unicode="&#xe55;" horiz-adv-x="927" d="M76 316v90q0 75 20.5 131t58 94.5t90.5 60t117 27.5q-3 3 -6.5 9t-6.5 14t-5 17.5t-2 18.5q0 27 10 50.5t27.5 41.5t41 28t50.5 10t50.5 -10t41 -28t27.5 -41.5t10 -50.5q0 -15 -4 -28q-2 -14 -12 -27q50 2 81 10.5t49 24.5t25 39t9 51h104q-1 -38 -11.5 -75t-36.5 -65 t-72 -46q-46 -17 -116 -17h-162q-57 0 -107.5 -11.5t-88.5 -37.5t-60 -67.5t-22 -100.5v-106q0 -52 14 -96t44 -76.5t77 -51t111 -18.5h98q-16 10 -34.5 25t-34 35.5t-25.5 48t-10 61.5q0 10 1 25t6.5 31t17 33t32.5 31t52 24t77 12v-76q-38 -2 -57 -13t-27.5 -26t-9 -30 t-0.5 -25q0 -20 8 -40t21 -37t29 -32t32 -25t31 -16t27 -6h196v-80h-450q-64 0 -114 14t-86 37.5t-60 55t-39 66.5t-21 72t-6 71zM404 778q0 -14 5 -26t14 -21t21.5 -15t26.5 -6t26.5 6t21.5 15t14 21t5 26t-5 26t-14 21.5t-21.5 15t-26.5 5.5t-26.5 -5.5t-21.5 -15 t-14 -21.5t-5 -26z" />
<glyph unicode="&#xe56;" horiz-adv-x="925" d="M45 752l69 44l86 -140q22 10 54.5 23t71.5 25.5t82 21.5q44 10 88 12q70 2 125 -10.5t96 -36t69 -56.5t45 -72.5t24 -84t7 -89.5v-55q-4 -46 -17 -90t-35.5 -83t-55 -72t-74.5 -56t-95 -35t-116 -10q-70 2 -128.5 20t-100.5 49.5t-65 73.5t-23 92q0 48 16 83.5t46 57.5 t72 33t95 11h35v-64h-29q-42 0 -68.5 -9.5t-41.5 -26t-21 -40.5t-6 -51q0 -32 16.5 -59t46.5 -47.5t72.5 -32.5t93.5 -12q54 -1 105 15.5t90 50.5t62 84q24 50 24 114v55q0 70 -17.5 122t-51 85.5t-81.5 49.5t-108 14q-46 -1 -89 -9t-83.5 -22.5t-80 -35.5t-79.5 -49z" />
<glyph unicode="&#xe57;" horiz-adv-x="1073" d="M76 320v69q0 80 18 141.5t52 104.5t83.5 69t112.5 36l92 -103l98 101q73 -10 121.5 -38t77.5 -72t41 -103t12 -129v-72q0 -31 -2.5 -63.5t-10 -64.5t-22.5 -64t-39 -64q63 20 101.5 49t58.5 66.5t26 80.5q7 42 7 88v291q0 49 11 86t31 63t47.5 40t61.5 16l17 -80 q-20 -4 -33.5 -14.5t-21.5 -29t-11 -46.5t-3 -64v-246q0 -80 -16 -144.5t-52 -112t-95 -78.5t-147 -45l-84 65q28 32 44 62.5t23 62.5t8 66q1 36 1 76v76q0 60 -11 104.5t-30 75t-44 48.5t-54 23l-111 -111l-104 111q-26 -2 -53 -17.5t-49.5 -46.5t-37 -78.5t-14.5 -113.5 v-67q0 -21 1 -47.5t5 -54.5t12 -54t23 -46.5t38 -33t57 -12.5h9h14.5h16.5l12 2l2 -78q-9 -2 -21.5 -4t-26.5 -3t-28 -1t-26 2q-42 10 -73 30t-51.5 47t-33 58t-19.5 64t-9 66t-2 61z" />
<glyph unicode="&#xe58;" horiz-adv-x="905" d="M76 262v144q0 74 22 133.5t66 101t109.5 64t152.5 22.5h196q38 0 64 8.5t41.5 23.5t23 37t9.5 50h102q0 -26 -5 -51t-15 -48t-27 -42t-43 -33.5t-61 -22.5t-83 -8h-218q-62 0 -106 -18t-72.5 -47.5t-42 -68.5t-13.5 -79v-166q0 -36 13 -67.5t35 -56t49 -39.5t55 -17 l126 108l136 -108q30 0 56 8.5t45 28t29.5 52t10.5 81.5q0 22 -3.5 47t-13.5 45t-29 33.5t-50 13.5h-27v65h27q42 0 72.5 -8t52 -23t35 -35t20.5 -43t10 -47t3 -48q0 -63 -14.5 -111.5t-45 -81.5t-77.5 -50t-111 -19l-126 104l-118 -104q-64 6 -113 30t-81.5 61t-49 83 t-16.5 98z" />
<glyph unicode="&#xe59;" horiz-adv-x="915" d="M76 322v65q0 86 13 151.5t43 110.5t79.5 68t122.5 23q14 0 29 -1t31 -3t31 -6t27 -11q10 -6 20 -12.5t19 -15.5t19 -21t20 -29l92 90q2 2 6 5.5t9 3.5h51q38 0 62 6t38 19t19 34t6 49h101q-2 -24 -6.5 -48t-14 -45t-25.5 -38.5t-40 -30t-58 -19.5t-80 -7h-12 q-14 0 -23 -6t-18 -15l-61 -65l272 -574h-104l-244 522q-16 33 -31.5 58.5t-34.5 43.5t-44 27q-24 9 -60 9q-33 0 -61.5 -13t-49 -43t-32 -82t-11.5 -129v-84q0 -24 3 -50.5t9 -52.5t16.5 -49.5t27 -41.5t38.5 -29q24 -10 54 -10q10 0 19 0.5t23 3.5l13 -80q-22 -3 -50 -5 q-29 -2 -53 1q-46 6 -78.5 23t-55 42t-35.5 57t-20 66t-9 70t-2 68z" />
<glyph unicode="&#xe5a;" horiz-adv-x="1050" d="M45 614q0 42 11.5 75t30.5 58t45 43t55 29t60 16t60 5h101v-78h-101q-80 0 -117.5 -36t-37.5 -114q0 -34 9 -67.5t33 -60t65 -42.5t105 -16q66 0 116.5 13t84 39t51 68t17.5 99v195h102v-840h-102v465q-23 -33 -53 -55.5t-64.5 -36t-71 -19.5t-72.5 -6q-82 0 -143 19 t-102 54t-61.5 83.5t-20.5 109.5zM868 0h100v840h-100v-840z" />
<glyph unicode="&#xe5b;" horiz-adv-x="1775" d="M47 422q0 55 10.5 107.5t31 98.5t51 84.5t70.5 66t89 43.5t107 16q53 0 96 -11t76.5 -31t57.5 -47t40 -60t23 -70t7 -77h-98q0 46 -12 83t-35.5 63t-58.5 40t-80 14q-63 0 -112 -24t-82.5 -67.5t-50.5 -104t-17 -134.5q0 -63 21 -119.5t61.5 -98.5t98 -67t128.5 -25 q68 0 120.5 19t93.5 54t69 83t47 106t29 125t12 137q11 6 19.5 11l17 10l17 10t20.5 11q20 -24 42 -54t43.5 -62t41 -64t34.5 -60q39 65 73 118.5t62 92.5q12 -18 27 -43t30.5 -52.5t31 -55.5t30.5 -54l21 28t25 34t25 36t24 31h254q16 -24 30 -49q14 -24 28 -49h-294 q-28 -40 -56 -84t-55 -92q-24 50 -55.5 102.5t-65.5 104.5q-16 -22 -33.5 -48.5t-35.5 -57t-35.5 -65t-32.5 -73.5q-14 35 -32.5 72.5t-39.5 74t-43 71.5q-20 34 -42 64q-4 -81 -23 -151.5t-49 -129.5t-70 -106t-89 -79t-105 -49t-117 -17q-67 0 -124 17t-103 46.5t-81.5 70 t-59 86.5t-36 97.5t-12.5 102.5z" />
<glyph unicode="&#x2000;" horiz-adv-x="796" />
<glyph unicode="&#x2001;" horiz-adv-x="1593" />
<glyph unicode="&#x2002;" horiz-adv-x="796" />
<glyph unicode="&#x2003;" horiz-adv-x="1593" />
<glyph unicode="&#x2004;" horiz-adv-x="531" />
<glyph unicode="&#x2005;" horiz-adv-x="398" />
<glyph unicode="&#x2006;" horiz-adv-x="265" />
<glyph unicode="&#x2007;" horiz-adv-x="265" />
<glyph unicode="&#x2008;" horiz-adv-x="199" />
<glyph unicode="&#x2009;" horiz-adv-x="318" />
<glyph unicode="&#x200a;" horiz-adv-x="88" />
<glyph unicode="&#x200b;" />
<glyph unicode="&#x2010;" horiz-adv-x="588" d="M64 314v82h460v-82h-460z" />
<glyph unicode="&#x2011;" horiz-adv-x="588" d="M64 314v82h460v-82h-460z" />
<glyph unicode="&#x2012;" horiz-adv-x="588" d="M64 314v82h460v-82h-460z" />
<glyph unicode="&#x2013;" horiz-adv-x="698" d="M0 342v90h698v-90h-698z" />
<glyph unicode="&#x2014;" horiz-adv-x="1399" d="M0 342v90h1399v-90h-1399z" />
<glyph unicode="&#x2018;" horiz-adv-x="389" d="M129 656v153q0 30 8.5 61t25 57.5t41 46.5t58.5 30v-70q-16 -6 -27 -19t-19 -31t-13 -37t-7 -36h58v-155h-125z" />
<glyph unicode="&#x2019;" horiz-adv-x="389" d="M127 652v67q16 4 27.5 17.5t19.5 31.5t13 37t5 37h-57v158h125v-154q-1 -31 -8.5 -61.5t-24 -57.5t-41.5 -46.5t-59 -28.5z" />
<glyph unicode="&#x201c;" horiz-adv-x="518" d="M86 656v153q0 32 8 62.5t24.5 57t41 46t57.5 29.5v-70q-16 -6 -27.5 -19t-19.5 -31t-12 -37t-6 -36h59v-155h-125zM301 656v153q0 30 8.5 61t25 57.5t41 46.5t58.5 30v-70q-16 -6 -27 -19t-19 -31t-13 -37t-7 -36h58v-155h-125z" />
<glyph unicode="&#x201d;" horiz-adv-x="518" d="M84 652v67q16 5 27 18.5t19 31t13 36.5t7 37h-60v158h127v-154q-1 -31 -9 -61.5t-24 -57.5t-41 -46.5t-59 -28.5zM299 652v67q16 4 27.5 17.5t19.5 31.5t13 37t5 37h-57v158h125v-154q-1 -31 -8.5 -61.5t-24 -57.5t-41.5 -46.5t-59 -28.5z" />
<glyph unicode="&#x2022;" horiz-adv-x="483" d="M62 412q0 38 14 70.5t38 57t57 38.5t71 14t70.5 -14t57 -38.5t38.5 -57.5q14 -32 14 -70t-14 -71t-38.5 -57t-57.5 -38q-32 -14 -70 -14t-71 14t-57 38t-38 57t-14 71z" />
<glyph unicode="&#x202f;" horiz-adv-x="318" />
<glyph unicode="&#x205f;" horiz-adv-x="398" />
<glyph unicode="&#x20ac;" horiz-adv-x="1042" d="M30 389v61h82q-2 12 -2 25v25v26q0 13 2 27h-82v65h91q10 56 29 107.5t47.5 96t66.5 81.5t86 63t106 40t126 14q48 0 94 -9t89 -26.5t80 -44t65.5 -62.5t47.5 -81t25 -99h-103q-13 58 -41 101.5t-67.5 72.5t-87.5 43.5t-102 14.5q-80 0 -141 -25t-105 -68t-72 -99 t-41 -120h359v-65h-367q-2 -14 -2 -27.5v-25.5t1 -24q0 -14 1 -26h367v-61h-359q12 -66 38.5 -124t70.5 -102t106 -69.5t144 -25.5q68 0 123 23t95 65t64 99t31 124h103q-10 -94 -43 -168t-87 -125.5t-126 -78.5t-160 -27q-103 0 -183.5 32t-137.5 87t-93 130t-49 160h-89z " />
<glyph unicode="&#x2122;" horiz-adv-x="1384" d="M112 932v68h453v-68h-186v-510h-78v510h-189zM664 422v578h122l185 -460l178 460h123v-578h-78l-2 496l-201 -496h-47l-202 496v-496h-78z" />
<glyph unicode="&#x25cc;" horiz-adv-x="934" d="M209 406l92 46q-3 -22 -4 -45t4 -49zM276 226l42 96q12 -20 28 -37t37 -31zM295 586l94 -33q-45 -21 -69 -63zM418 565l49 97l45 -90q-22 4 -47 2.5t-47 -9.5zM422 236q22 -6 42 -6t46 8l-43 -92zM547 555l111 31l-44 -98q-12 22 -30.5 37.5t-36.5 29.5zM549 252 q20 14 35 30q16 16 30 34l27 -93zM631 360q9 23 10 45.5t-4 44.5l88 -46z" />
<glyph unicode="&#xe000;" horiz-adv-x="730" d="M0 730h730v-730h-730v730z" />
<glyph unicode="&#xf700;" horiz-adv-x="751" d="M43 622q6 52 29.5 95.5t64.5 74t101 47.5t139 17q34 0 64.5 -4t56.5 -12q28 2 49.5 10.5t37 21t25.5 28.5t12 34h113q-3 -18 -13 -37t-29 -37t-47 -33.5t-68 -25.5q27 -20 45.5 -45.5t30 -55.5t16 -64t4.5 -68q-1 -32 -9.5 -73t-22.5 -88t-32.5 -97.5t-40 -103 t-44.5 -104.5t-46 -102h-135l-146 408h-108v71h186l138 -401q18 42 36 86t35 89t32 88t26 84t18 77t9 66q2 43 -8.5 80.5t-34.5 65.5t-63.5 44t-97.5 16q-97 0 -150 -40q-52 -40 -60 -112h-113z" />
<glyph unicode="&#xf70f;" horiz-adv-x="1329" d="M35 600q8 32 23 63.5t36.5 60t50.5 53.5t67 43.5t84 29t102 10.5q68 0 119.5 -13.5t90 -37.5t64.5 -56.5t42 -72t23 -83t7 -89.5v-236q0 -53 14 -91.5t40 -63t62 -36t78 -11.5t78 11.5t62 36t41 63.5t15 91v568h103v-551q0 -70 -18.5 -126.5t-55.5 -97t-93.5 -62 t-131.5 -21.5t-131 21.5t-92.5 62t-55 97t-18.5 126.5v237q0 30 -4.5 60.5t-15.5 58t-29.5 52t-45.5 42t-63.5 28.5t-84.5 11q-62 1 -108 -15.5t-77.5 -43t-49 -58.5t-23.5 -61q20 -10 32.5 -26t20 -36.5t10 -44t2.5 -51.5v-366h94v-76h-197v444q0 22 -1 43t-7.5 40 t-20.5 37t-38 36z" />
<glyph unicode="&#xf718;" d="M-262 -340h170v-274h-96v206h-74v68z" />
<glyph unicode="&#xf719;" d="M-582 -340h174v-86q0 -62 27 -92.5t84 -30.5q56 0 81.5 30.5t25.5 92.5v86h98v-86q0 -38 -11 -72.5t-35 -60t-63 -40.5t-96 -15q-56 0 -95.5 13t-64.5 39t-36 64t-11 90h-78v68z" />
<glyph unicode="&#xf71a;" d="M-246 -418q0 17 7 32.5t18 26.5t26.5 18t32.5 7t32 -7t26 -18t17.5 -26.5t6.5 -32.5t-6.5 -31.5t-17.5 -25.5t-26 -18t-32 -7t-32.5 7t-26.5 18t-18 25.5t-7 31.5z" />
<glyph unicode="&#xf71d;" horiz-adv-x="1038" d="M41 840h111l139 -682l193 569h84l178 -569l98 407q6 24 11 48.5t6 48t-2.5 45t-16 38.5t-35.5 29t-59 16v54q40 3 72 11.5t56 24.5t40 41t22 60h125q-8 -36 -25.5 -66t-42.5 -52.5t-56 -36.5t-63 -17q34 -13 53 -38t26.5 -55t5 -62.5t-10.5 -61.5l-160 -592h-84l-182 578 l-200 -578h-84z" />
<glyph unicode="&#xf880;" horiz-adv-x="1014" d="M66 420q0 60 15.5 116t44 105t68.5 89t89 68t105 44t116 16t116 -16t105 -44t89 -68t68 -89t44 -105t16 -116t-16 -116t-44 -105t-68 -89t-89 -68.5t-105 -44t-116 -15.5t-116 15.5t-105 44t-89 68.5t-68.5 89t-44 105t-15.5 116zM160 420q0 -48 12 -92t34.5 -82 t54 -69.5t69.5 -54t82 -34.5t92 -12t92 12t82 34.5t69.5 54t54 69.5t34.5 82t12 92t-12 92t-34.5 82t-54 69.5t-69.5 54t-82 34.5t-92 12t-92 -12t-82 -34.5t-69.5 -54t-54 -69.5t-34.5 -82t-12 -92zM258 420q0 50 19.5 95t53 78t78 53t95.5 20q50 0 95 -20t78 -53t53 -78 t20 -95q0 -51 -20 -95.5t-53 -78t-78 -53t-95 -19.5q-51 0 -95.5 19.5t-78 53t-53 78t-19.5 95.5zM344 420q0 -33 12.5 -62.5t34 -51t51 -34t62.5 -12.5t62 12.5t50.5 34t34.5 51t13 62.5t-13 62t-34.5 50.5t-50.5 34.5t-62 13t-62.5 -13t-51 -34.5t-34 -50.5t-12.5 -62z M366 1194h93l-17 -207h-61zM555 1194h94l-14 -207h-63z" />
<glyph unicode="&#xf881;" horiz-adv-x="1302" d="M35 600q12 48 39.5 94.5t72 83t108 58.5t149.5 22q52 0 94 -7t77 -21t62 -33t47 -41q21 24 48.5 42.5t59 31t66 18.5t70.5 6q60 0 112 -16t90 -50t59 -85t21 -121v-856h-102v827q0 58 -12 100.5t-35 69.5t-56 40t-77 13q-37 0 -67.5 -9.5t-54 -28t-38.5 -46.5 q-14 -28 -20 -64q8 -29 11 -59.5t3 -62.5v-778h-102v796q0 30 -5 60.5t-16 58t-30 52t-47 42t-68 28.5q-38 11 -90 11q-66 0 -114 -18t-79.5 -45t-49 -57t-21.5 -54q34 -20 49.5 -60t15.5 -96v-372h94v-74h-197v448q0 22 -2 44.5t-8.5 42.5t-20 36.5t-36.5 28.5z" />
<glyph unicode="&#xf882;" horiz-adv-x="1327" d="M30 0v76h89v372q0 22 -2 44.5t-9 42.5t-20.5 36.5t-36.5 28.5q12 48 39.5 94.5t72.5 83t109.5 58.5t151.5 22q54 0 98 -8t80 -22t63 -34t47 -44q20 26 46 45t57 32.5t66 20t71 6.5q60 0 112 -16t90 -50t59.5 -85t21.5 -121v-854h-103v825q0 58 -11.5 100.5t-34 69.5 t-56.5 40t-78 13q-76 0 -122.5 -38t-57.5 -112q8 -29 11 -59t3 -61v-778h-102v796q0 30 -4.5 60.5t-16 58t-30.5 52t-48 42t-69 28.5t-92 11q-68 0 -116 -18t-80 -45t-50 -57q-16 -30 -22 -54q34 -20 49.5 -60t15.5 -96v-446h-191z" />
<glyph d="M-602 994q2 68 41 112q39 46 121 64q10 55 57 90q47 34 133 42v-67q-37 -2 -60 -9.5t-36 -22t-17.5 -37t-4.5 -52.5v-2h-11q-36 0 -60 -8t-39.5 -23.5t-22.5 -37.5q-7 -21 -9 -49h-92z" />
<glyph horiz-adv-x="878" d="M30 39v75h89v334q0 22 -2 44.5t-9 42.5t-20.5 36.5t-36.5 28.5q12 48 39.5 94.5t72.5 83t109.5 58.5t151.5 22q72 0 127 -13.5t95 -37.5t67 -56.5t43.5 -72t23 -83t6.5 -89.5v-696h-112q-13 20 -34.5 36t-50 28t-62 19t-71.5 7t-75 -10t-68 -25t-55 -33t-35 -35v101 q10 8 32 21.5t53.5 26.5t69.5 22.5t78 9.5q42 0 76.5 -6.5t62.5 -17t50 -23.5t39 -27v620q0 30 -4.5 60.5t-16 58t-30.5 52t-48 42t-69 28.5t-92 11q-68 0 -116 -18t-80 -45t-50 -57q-16 -30 -22 -54q34 -20 49.5 -60t15.5 -96v-407h-191zM637 -356q0 17 6.5 32t18.5 26.5 t27 18.5t32 7t32 -7t26 -18.5t17.5 -27t6.5 -31.5q0 -17 -6.5 -32t-17.5 -26.5t-26 -17.5t-32 -6t-32 6t-27 17.5t-18.5 26.5t-6.5 32z" />
<glyph horiz-adv-x="878" d="M30 39v75h89v334q0 22 -2 44.5t-9 42.5t-20.5 36.5t-36.5 28.5q12 48 39.5 94.5t72.5 83t109.5 58.5t151.5 22q72 0 127 -13.5t95 -37.5t67 -56.5t43.5 -72t23 -83t6.5 -89.5v-702h-106q-9 20 -20 38t-25.5 31t-34.5 21t-47 8q-26 0 -44.5 -9t-31.5 -23t-20 -32 q-7 -16 -11 -34h-94q-6 18 -13.5 35.5t-20 32t-30.5 23.5t-42 9q-20 0 -35 -9t-26 -23t-18 -32t-9 -36h-90q4 42 18.5 74t37.5 54t53 34q31 12 65 12q23 0 45.5 -5t43 -17t38 -32t31.5 -49q13 30 31.5 50.5t39 31.5t42 16t40.5 5q42 0 73.5 -17t57.5 -53v616q0 30 -4.5 60.5 t-16 58t-30.5 52t-48 42t-69 28.5t-92 11q-68 0 -116 -18t-80 -45t-50 -57q-16 -30 -22 -54q34 -20 49.5 -60t15.5 -96v-407h-191zM637 -356q0 17 6.5 32t18.5 26.5t27 18.5t32 7t32 -7t26 -18.5t17.5 -27t6.5 -31.5q0 -17 -6.5 -32t-17.5 -26.5t-26 -17.5t-32 -6t-32 6 t-27 17.5t-18.5 26.5t-6.5 32z" />
<glyph horiz-adv-x="878" d="M64 39v75h88v334q0 32 -3 56.5t-11 43t-21 32t-33 22.5q10 48 37 94t72 82t107 58t142 22q68 0 120.5 -13.5t91 -37.5t64.5 -56.5t41.5 -72t22 -83t6.5 -89.5v-696h-112q-13 20 -34.5 36t-50 28t-62 19t-70.5 7q-38 0 -75.5 -10t-68.5 -25t-55 -33q-22 -18 -34 -35v101 q9 8 31.5 21.5t53.5 26.5t69 22.5t79 9.5q42 0 76 -6.5t62 -17t50 -23.5t39 -27v620q0 44 -11 89t-39 81t-75 58.5t-119 23.5q-60 0 -105 -15t-77 -39.5t-50 -56t-24 -63.5q32 -18 50 -55t18 -101v-407h-190zM618 -284h170v-275h-96v207h-74v68z" />
<glyph horiz-adv-x="878" d="M30 39v75h89v334q0 22 -2 44.5t-9 42.5t-20.5 36.5t-36.5 28.5q12 48 39.5 94.5t72.5 83t109.5 58.5t151.5 22q72 0 127 -13.5t95 -37.5t67 -56.5t43.5 -72t23 -83t6.5 -89.5v-702h-106q-9 20 -20 38t-25.5 31t-34.5 21t-47 8q-26 0 -44.5 -9t-31.5 -23t-20 -32 q-7 -16 -11 -34h-94q-6 18 -13.5 35.5t-20 32t-30.5 23.5t-42 9q-20 0 -35 -9t-26 -23t-18 -32t-9 -36h-90q4 42 18.5 74t37.5 54t53 34q31 12 65 12q23 0 45.5 -5t43 -17t38 -32t31.5 -49q13 30 31.5 50.5t39 31.5t42 16t40.5 5q42 0 73.5 -17t57.5 -53v616q0 30 -4.5 60.5 t-16 58t-30.5 52t-48 42t-69 28.5t-92 11q-68 0 -116 -18t-80 -45t-50 -57q-16 -30 -22 -54q34 -20 49.5 -60t15.5 -96v-407h-191zM618 -284h170v-275h-96v207h-74v68z" />
<glyph horiz-adv-x="686" d="M-542 1114q0 28 10 52.5t27 42.5t41 28t50 10q28 0 53 -10t42.5 -28t28 -42.5t10.5 -52.5q0 -27 -10.5 -50.5t-28 -41t-41.5 -27.5q-26 -10 -54 -10q-27 0 -50.5 10t-40.5 27.5t-27 41t-10 50.5zM-473 1114q0 -12 4.5 -23t12.5 -19t19 -13t23 -5q14 0 26 5t20 13t13 19 t5 23q0 14 -5 25.5t-13 20t-20 13.5t-26 5q-12 0 -23 -5t-19 -13.5t-12.5 -20t-4.5 -25.5zM20 622q2 58 28 102t66.5 73t92 43t105.5 14q60 0 112 -16t89.5 -50t59 -85t21.5 -121v-582h-102v553q0 58 -12 100.5t-35 69.5t-57 40q-32 13 -76 13q-76 0 -124 -39t-57 -115h-111 z" />
<glyph horiz-adv-x="686" d="M-542 1114q0 28 10 52.5t27 42.5t41 28t50 10q28 0 53 -10t42.5 -28t28 -42.5t10.5 -52.5q0 -27 -10.5 -50.5t-28 -41t-41.5 -27.5q-26 -10 -54 -10q-27 0 -50.5 10t-40.5 27.5t-27 41t-10 50.5zM-473 1114q0 -12 4.5 -23t12.5 -19t19 -13t23 -5q14 0 26 5t20 13t13 19 t5 23q0 14 -5 25.5t-13 20t-20 13.5t-26 5q-12 0 -23 -5t-19 -13.5t-12.5 -20t-4.5 -25.5zM20 622q2 58 28 102t66.5 73t92 43t105.5 14q60 0 112 -16t89.5 -50t59 -85t21.5 -121v-582h-102v553q0 58 -12 100.5t-35 69.5t-57 40q-32 13 -76 13q-76 0 -124 -39t-57 -115h-111 z" />
<glyph horiz-adv-x="878" d="M30 39v75h89v334q0 22 -2 44.5t-9 42.5t-20.5 36.5t-36.5 28.5q12 48 39.5 94.5t72.5 83t109.5 58.5t151.5 22q72 0 127 -13.5t95 -37.5t67 -56.5t43.5 -72t23 -83t6.5 -89.5v-696h-112q-13 20 -34.5 36t-50 28t-62 19t-71.5 7t-75 -10t-68 -25t-55 -33t-35 -35v101 q10 8 32 21.5t53.5 26.5t69.5 22.5t78 9.5q42 0 76.5 -6.5t62.5 -17t50 -23.5t39 -27v620q0 30 -4.5 60.5t-16 58t-30.5 52t-48 42t-69 28.5t-92 11q-68 0 -116 -18t-80 -45t-50 -57q-16 -30 -22 -54q34 -20 49.5 -60t15.5 -96v-407h-191zM295 -284h174v-86q0 -62 26.5 -93 t84.5 -31q56 0 81 31t25 93v86h98v-86q0 -38 -10.5 -73t-35 -60.5t-63.5 -40.5t-95 -15t-96 13t-64.5 38.5t-36 64.5t-11.5 91h-77v68z" />
<glyph horiz-adv-x="878" d="M30 39v75h89v334q0 22 -2 44.5t-9 42.5t-20.5 36.5t-36.5 28.5q12 48 39.5 94.5t72.5 83t109.5 58.5t151.5 22q72 0 127 -13.5t95 -37.5t67 -56.5t43.5 -72t23 -83t6.5 -89.5v-702h-106q-9 20 -20 38t-25.5 31t-34.5 21t-47 8q-26 0 -44.5 -9t-31.5 -23t-20 -32 q-7 -16 -11 -34h-94q-6 18 -13.5 35.5t-20 32t-30.5 23.5t-42 9q-20 0 -35 -9t-26 -23t-18 -32t-9 -36h-90q4 42 18.5 74t37.5 54t53 34q31 12 65 12q23 0 45.5 -5t43 -17t38 -32t31.5 -49q13 30 31.5 50.5t39 31.5t42 16t40.5 5q42 0 73.5 -17t57.5 -53v616q0 30 -4.5 60.5 t-16 58t-30.5 52t-48 42t-69 28.5t-92 11q-68 0 -116 -18t-80 -45t-50 -57q-16 -30 -22 -54q34 -20 49.5 -60t15.5 -96v-407h-191zM297 -284h174v-86q0 -62 26.5 -93t84.5 -31q56 0 81 31t25 93v86h98v-86q0 -38 -10.5 -73t-35 -60.5t-63.5 -40.5t-95 -15t-95.5 13t-64 38.5 t-36 64.5t-11.5 91h-78v68z" />
<glyph d="M-647 994l37 73h518v-73h-555z" />
<glyph d="M-647 994l37 73h424v131h94v-204h-555z" />
<glyph d="M-647 994l37 73h276q-6 11 -10 27q-4 14 -4 30q0 28 10 52t28 42t42 29t51 11q28 0 52.5 -11t42.5 -29t28 -42t10 -52t-10 -51.5t-28 -41t-42 -27.5t-53 -10h-430zM-280 1124q0 -13 5 -24.5t13 -20t20 -13.5t25 -5t24.5 5t20 13.5t13.5 20.5t5 24q0 13 -5 24.5 t-13.5 20.5t-20 14t-24.5 5t-25 -5t-20 -14t-13 -20.5t-5 -24.5z" />
<glyph d="M-647 994l37 73h210v131h93v-131h123v131h92v-204h-555z" />
<glyph d="M-1010 994l37 73h709v-73h-746z" />
<glyph d="M-1010 994l37 73h615v131h94v-204h-746z" />
<glyph d="M-1010 994l37 73h517q-6 11 -10 27q-5 14 -5 30q0 28 10.5 52t28.5 42t41.5 29t50.5 11q28 0 52.5 -11t42.5 -29t28 -42t10 -52t-10 -51.5t-28 -41t-42.5 -27.5t-52.5 -10h-670zM-404 1124q0 -13 5 -24.5t14 -20t20.5 -13.5t24.5 -5t24.5 5t20.5 13.5t14 20.5t5 24 q0 13 -5 24.5t-14 20.5t-20.5 14t-24.5 5t-24.5 -5t-20.5 -14t-14 -20.5t-5 -24.5z" />
<glyph d="M-1010 994l37 73h405v131h93v-131h119v131h92v-204h-746z" />
<glyph d="M-358 1306v214h94v-214h-94z" />
<glyph d="M-600 1436v67h154v-125q58 0 97 11.5t64 29t39 40t20 44.5h101q-2 -18 -11.5 -39.5t-26.5 -43.5t-41.5 -42t-57 -36t-74.5 -26t-92 -10h-100v130h-72z" />
<glyph d="M-708 1306q-4 42 5 74t26 53.5t39 32t44 10.5t39.5 -5.5t30 -16t20.5 -24t12 -29.5q3 16 12 29.5t21.5 24t28.5 15.5q16 6 34 6q20 0 38 -6t32 -18t23.5 -32t13.5 -48q16 2 32.5 12t30.5 27t22 40t8 52h94q0 -42 -17 -77.5t-43 -61.5t-56 -42t-58 -16h-78q-2 17 -5 34 t-8 30.5t-15 21.5q-10 9 -24 9q-13 0 -22 -8.5t-15 -21.5t-8.5 -30t-2.5 -35h-74q0 18 -3 35.5t-9.5 31t-16 21t-21.5 7.5q-14 0 -23 -8.5t-15 -22t-8 -30t0 -34.5h-84z" />
<glyph d="M-488 1417v68h130v109h94v-109h129v-68h-129v-111h-94v111h-130z" />
<glyph d="M-958 994l38 73h828v-73h-866z" />
<glyph d="M-958 994l38 73h734v131h94v-204h-866z" />
<glyph d="M-958 994l38 73h586q-6 11 -10 27q-4 14 -4 30q0 28 10 52t28 42t42 29t51 11q28 0 52.5 -11t42.5 -29t28 -42t10 -52t-10 -51.5t-28 -41t-42 -27.5t-53 -10h-741zM-280 1124q0 -13 5 -24.5t13 -20t20 -13.5t25 -5t24.5 5t20 13.5t13.5 20.5t5 24q0 13 -5 24.5 t-13.5 20.5t-20 14t-24.5 5t-25 -5t-20 -14t-13 -20.5t-5 -24.5z" />
<glyph d="M-958 994l38 73h520v131h93v-131h123v131h92v-204h-866z" />
<glyph d="M-186 1214v214h94v-214h-94z" />
<glyph d="M-436 1344v67h154v-125q58 0 97 11t64 29t39 40t20 45h101q-2 -18 -11.5 -39.5t-26.5 -43.5t-41.5 -42t-57 -36t-74.5 -26t-92 -10h-100v130h-72z" />
<glyph d="M-536 1214q-4 42 5 74t26 53.5t39 32t44 10.5t39.5 -5.5t30 -16t20.5 -24.5t12 -30q3 16 12 30t22 24.5t29 16t34 5.5q20 0 37.5 -6t31.5 -18.5t24 -32t14 -47.5q16 2 32.5 12t30 26.5t21.5 40t8 52.5h94q0 -28 -8 -53t-21 -46.5t-30.5 -39.5t-37 -30.5t-39.5 -19.5 q-20 -8 -38 -8h-78q-2 17 -5 34t-8 30.5t-15 21.5t-24 8q-13 0 -22 -8t-15 -21t-8.5 -30t-2.5 -35h-74q0 18 -3 35.5t-9 30.5t-16 20q-10 8 -22 8q-14 0 -23 -8t-15 -21.5t-8 -30t0 -34.5h-84z" />
<glyph d="M-316 1325v67h126v109h98v-109h129v-67h-129v-111h-98v111h-126z" />
<glyph d="M-400 1214v214h95v-214h-95z" />
<glyph d="M-680 1344v67h154v-125q58 0 97 11t64 29t39 40t21 45h100q-2 -18 -11.5 -39.5t-26.5 -43.5t-41 -42t-57 -36t-74.5 -26t-92.5 -10h-100v130h-72z" />
<glyph d="M-788 1214q-4 42 5 74t26 53.5t39 32t44 10.5t39.5 -5.5t30 -16t20.5 -24.5t12 -30q3 16 12.5 30t22 24.5t29 16t33.5 5.5q20 0 37.5 -6t31.5 -18.5t24 -32t14 -47.5q16 2 32.5 12t30 26.5t21.5 40t8 52.5h94q0 -28 -8 -53t-21 -46.5t-30.5 -39.5t-37 -30.5t-39.5 -19.5 q-20 -8 -38 -8h-78q-2 17 -4.5 34t-8 30.5t-15.5 21.5t-24 8q-13 0 -22 -8t-15 -21t-8.5 -30t-2.5 -35h-74q0 18 -3 35.5t-9 30.5t-16 20q-10 8 -22 8q-14 0 -23 -8t-15 -21.5t-8 -30t0 -34.5h-84z" />
<glyph d="M-528 1325v67h124v109h99v-109h129v-67h-129v-111h-99v111h-124z" />
<glyph d="M-418 -108h170v-275h-96v207h-74v68z" />
<glyph d="M-614 -108h174v-86q0 -62 26 -93t84 -31q56 0 81.5 31t25.5 93v86h98v-86q0 -38 -10.5 -73t-34.5 -60.5t-63 -40.5t-97 -15q-56 0 -95 13t-64 39t-36 64.5t-11 90.5h-78v68z" />
<glyph d="M-404 -180q0 17 7 32t18.5 26.5t27 18.5t31.5 7q17 0 32 -7t26.5 -18.5t17.5 -26.5t6 -32t-6 -32t-17.5 -26t-26 -17.5t-32.5 -6.5q-17 0 -32 6.5t-26.5 17.5t-18.5 26t-7 32z" />
<glyph d="M-375 -108h170v-275h-96v207h-74v68z" />
<glyph d="M-704 -108h174v-86q0 -62 26.5 -93t83.5 -31q56 0 81 31t25 93v86h99v-86q0 -38 -10.5 -73t-35 -60.5t-63.5 -40.5t-96 -15q-56 0 -95 13t-64 39t-36 64.5t-11 90.5h-78v68z" />
<glyph d="M-372 -180q0 17 6.5 32t18 26.5t26.5 18.5t32 7t32 -7t26 -18.5t17.5 -26.5t6.5 -32t-6.5 -32t-17.5 -26t-26 -17.5t-32 -6.5t-32 6.5t-26.5 17.5t-18 26t-6.5 32z" />
<glyph d="M-600 994v146h94v-73h662v-73h-756z" />
<glyph d="M-400 1306v214h95v-214h-95z" />
<glyph d="M-604 1436v67h154v-125q58 0 97 11.5t64 29t39 40t20 44.5h101q-2 -18 -11.5 -39.5t-26.5 -43.5t-41.5 -42t-57 -36t-74.5 -26t-92 -10h-100v130h-72z" />
<glyph d="M-624 1306q-4 42 5 74t26 53.5t39 32t44 10.5t39.5 -5.5t30 -16t20.5 -24t12 -29.5q3 16 12 29.5t21.5 24t28.5 15.5q16 6 34 6q20 0 38 -6t32 -18t23.5 -32t13.5 -48q16 2 32.5 12t30.5 27t22 40t8 52h94q0 -42 -17 -77.5t-43 -61.5t-56 -42t-58 -16h-78q-2 17 -5 34 t-8 30.5t-15 21.5q-10 9 -24 9q-13 0 -22 -8.5t-15 -21.5t-8.5 -30t-2.5 -35h-74q0 18 -3 35.5t-9.5 31t-16 21t-21.5 7.5q-14 0 -23.5 -8.5t-15 -22t-7.5 -30t0 -34.5h-84z" />
<glyph d="M-528 1417v68h124v109h99v-109h129v-68h-129v-111h-99v111h-124z" />
<glyph d="M-460 1306v214h95v-214h-95z" />
<glyph d="M-588 1417v68h124v109h99v-109h129v-68h-129v-111h-99v111h-124z" />
</font>
</defs>
</svg>
